<?xml version="1.0" standalone="no"?><!DOCTYPE svg PUBLIC "-//W3C//DTD SVG 1.1//EN" "http://www.w3.org/Graphics/SVG/1.1/DTD/svg11.dtd" ><svg xmlns="http://www.w3.org/2000/svg"><metadata></metadata><defs><font id="fonteditor" horiz-adv-x="1000"><font-face font-family="Source Han Sans Light" font-weight="300" font-stretch="normal" units-per-em="1000" panose-1="2 11 3 0 0 0 0 0 0 0" ascent="880" descent="-120" x-height="0" bbox="-38 -277 1000 880" underline-thickness="0" underline-position="0" unicode-range="U+0021-ffe3" /><missing-glyph horiz-adv-x="1000" d="M100 880 L900 880 L900 -120 L100 -120 L100 880 ZM818 830 L182 830 L500 421 L818 830 ZM850 -29 L850 789 L532 380 L850 -29 ZM818 -70 L500 339 L182 -70 L818 -70 ZM150 -29 L468 380 L150 789 L150 -29 Z" /><glyph glyph-name="exclam" unicode="!" d="M117 742 L177 742 L169 203 L126 203 L117 742 ZM147 -13 Q127 -13 112 2 Q96 17 96 41 Q96 66 112 81 Q127 96 147 96 Q168 96 183 81 Q198 66 198 41 Q198 17 183 2 Q168 -13 147 -13 Z" /><glyph glyph-name="quotedbl" unicode="&quot;" d="M92 685 L91 767 L157 767 L156 685 L145 517 L104 517 L92 685 ZM257 685 L256 767 L322 767 L321 685 L309 517 L269 517 L257 685 Z" /><glyph glyph-name="numbersign" unicode="#" d="M130 235 L40 235 L40 280 L136 280 L159 462 L62 462 L62 508 L163 508 L191 720 L234 720 L207 508 L368 508 L396 720 L439 720 L411 508 L501 508 L501 462 L407 462 L385 280 L479 280 L479 235 L378 235 L351 0 L307 0 L335 235 L174 235 L145 0 L102 0 L130 235 ZM341 280 L364 462 L202 462 L179 280 L341 280 Z" /><glyph glyph-name="percent" unicode="%" d="M201 284 Q127 284 86 344 Q43 405 43 515 Q43 623 86 683 Q128 742 201 742 Q275 742 317 683 Q359 623 359 515 Q359 405 317 344 Q275 284 201 284 ZM201 324 Q251 324 281 374 Q311 425 311 515 Q311 604 281 654 Q251 702 201 702 Q151 702 122 654 Q92 604 92 515 Q92 425 122 374 Q151 324 201 324 ZM627 742 L673 742 L267 -13 L221 -13 L627 742 ZM696 -13 Q622 -13 580 47 Q537 107 537 217 Q537 326 580 386 Q622 445 696 445 Q769 445 811 386 Q854 325 854 217 Q854 107 811 47 Q769 -13 696 -13 ZM696 27 Q746 27 775 76 Q805 127 805 217 Q805 307 775 357 Q746 405 696 405 Q645 405 616 357 Q586 307 586 217 Q586 127 616 76 Q645 27 696 27 Z" /><glyph glyph-name="ampersand" unicode="&amp;" d="M98 189 Q98 121 145 78 Q191 36 258 36 Q339 36 415 109 Q290 221 210 357 Q98 269 98 189 ZM191 579 Q191 515 230 430 Q369 529 369 605 Q369 696 291 696 Q246 696 218 662 Q191 629 191 579 ZM612 -13 Q536 11 454 76 Q363 -13 252 -13 Q160 -13 101 42 Q39 97 39 186 Q39 292 187 399 Q138 500 138 578 Q138 649 181 695 Q225 742 293 742 Q352 742 386 704 Q419 667 419 608 Q419 545 366 486 Q336 453 252 389 Q327 257 451 150 Q523 242 564 384 L619 384 Q572 225 490 117 Q567 59 630 37 L612 -13 Z" /><glyph glyph-name="quotesingle" unicode="&#39;" d="M92 685 L91 767 L157 767 L156 685 L145 517 L104 517 L92 685 Z" /><glyph glyph-name="parenleft" unicode="(" d="M242 -193 Q96 43 96 308 Q96 574 242 810 L278 791 Q146 577 146 308 Q146 37 278 -175 L242 -193 Z" /><glyph glyph-name="parenright" unicode=")" d="M37 -175 Q169 37 169 308 Q169 577 37 791 L73 810 Q219 574 219 308 Q219 43 73 -193 L37 -175 Z" /><glyph glyph-name="asterisk" unicode="*" d="M115 525 L176 625 L74 665 L86 703 L193 674 L202 789 L242 789 L249 675 L356 703 L368 665 L266 625 L328 525 L295 502 L222 594 L148 502 L115 525 Z" /><glyph glyph-name="plus" unicode="+" d="M242 342 L37 342 L37 389 L242 389 L242 611 L293 611 L293 389 L497 389 L497 342 L293 342 L293 120 L242 120 L242 342 Z" /><glyph glyph-name="comma" unicode="," d="M53 -138 Q140 -93 141 -4 Q137 -5 129 -5 Q77 -5 77 46 Q77 69 93 83 Q108 96 130 96 Q190 96 190 10 Q190 -115 70 -176 L53 -138 Z" /><glyph glyph-name="hyphen" unicode="-&#x2011;" d="M45 301 L291 301 L291 252 L45 252 L45 301 Z" /><glyph glyph-name="period" unicode="." d="M125 -13 Q104 -13 89 2 Q74 17 74 41 Q74 66 89 81 Q104 96 125 96 Q146 96 161 81 Q176 66 176 41 Q176 17 161 2 Q146 -13 125 -13 Z" /><glyph glyph-name="slash" unicode="/" d="M339 786 L387 786 L57 -177 L10 -177 L339 786 Z" /><glyph glyph-name="zero" unicode="0" d="M268 -13 Q166 -13 111 81 Q53 179 53 367 Q53 553 111 649 Q166 742 268 742 Q369 742 425 649 Q482 553 482 367 Q482 179 425 81 Q369 -13 268 -13 ZM268 36 Q340 36 381 119 Q424 205 424 367 Q424 526 381 611 Q340 693 268 693 Q195 693 154 611 Q111 526 111 367 Q111 205 154 119 Q195 36 268 36 Z" /><glyph glyph-name="one" unicode="1" d="M92 51 L257 51 L257 644 L130 644 L130 683 Q213 697 269 729 L316 729 L316 51 L468 51 L468 0 L92 0 L92 51 Z" /><glyph glyph-name="two" unicode="2" d="M45 36 Q390 334 390 531 Q390 603 354 646 Q315 693 241 693 Q153 693 79 602 L42 637 Q137 742 247 742 Q341 742 396 685 Q449 628 449 533 Q449 337 137 46 Q217 52 257 52 L484 52 L484 0 L45 0 L45 36 Z" /><glyph glyph-name="three" unicode="3" d="M258 -13 Q125 -13 31 87 L64 126 Q147 37 256 37 Q327 37 372 80 Q418 123 418 193 Q418 357 176 357 L176 406 Q392 406 392 562 Q392 621 355 657 Q317 693 254 694 Q164 693 94 617 L60 657 Q150 742 255 743 Q342 742 396 697 Q452 648 452 566 Q452 431 318 386 L318 381 Q388 366 431 319 Q478 267 478 193 Q478 100 415 42 Q353 -13 258 -13 Z" /><glyph glyph-name="four" unicode="4" d="M341 257 L341 526 Q341 579 347 647 L342 647 Q315 595 284 546 L86 257 L341 257 ZM501 208 L398 208 L398 0 L341 0 L341 208 L19 208 L19 245 L341 729 L398 729 L398 257 L501 257 L501 208 Z" /><glyph glyph-name="five" unicode="5" d="M253 -13 Q125 -13 28 82 L60 123 Q142 37 251 37 Q322 37 371 90 Q421 146 421 232 Q421 319 376 369 Q331 419 254 419 Q192 419 125 373 L87 396 L112 729 L445 729 L445 678 L164 678 L143 433 Q201 468 265 468 Q361 468 418 412 Q481 350 481 234 Q481 121 411 51 Q345 -13 253 -13 Z" /><glyph glyph-name="six" unicode="6" d="M294 36 Q353 36 393 88 Q432 141 432 220 Q432 402 284 402 Q194 402 117 298 Q132 36 294 36 ZM441 634 Q394 692 322 692 Q232 692 179 617 Q118 531 116 354 Q193 449 292 449 Q386 449 438 391 Q490 331 490 220 Q490 119 431 52 Q374 -13 293 -13 Q185 -13 123 79 Q59 173 59 344 Q59 550 139 653 Q207 742 321 742 Q413 742 476 672 L441 634 Z" /><glyph glyph-name="seven" unicode="7" d="M205 0 Q222 406 417 678 L48 678 L48 729 L488 729 L488 694 Q365 533 317 369 Q277 231 268 0 L205 0 Z" /><glyph glyph-name="eight" unicode="8" d="M271 -13 Q173 -13 109 42 Q45 97 45 181 Q45 312 184 389 L184 393 Q84 460 84 559 Q84 638 138 689 Q192 739 272 739 Q361 739 414 685 Q465 632 465 548 Q465 447 365 367 L365 362 Q489 288 489 172 Q489 93 429 41 Q367 -13 271 -13 ZM322 383 Q411 457 411 546 Q411 608 374 649 Q335 692 271 692 Q214 692 177 654 Q140 617 140 559 Q140 493 197 447 Q234 418 322 383 ZM271 34 Q342 34 387 74 Q431 113 431 173 Q431 247 366 296 Q327 325 219 367 Q100 296 100 184 Q100 120 148 77 Q197 34 271 34 Z" /><glyph glyph-name="nine" unicode="9" d="M250 327 Q343 327 420 434 Q410 694 242 694 Q183 694 143 641 Q104 588 104 509 Q104 426 139 379 Q177 327 250 327 ZM96 95 Q146 37 223 37 Q307 37 358 113 Q417 200 421 377 Q341 280 243 280 Q151 280 99 339 Q46 399 46 509 Q46 610 105 677 Q162 742 243 742 Q351 742 413 656 Q478 566 478 404 Q478 189 400 80 Q333 -13 222 -13 Q128 -13 61 57 L96 95 Z" /><glyph glyph-name="colon" unicode=":" d="M125 405 Q104 405 89 420 Q74 435 74 459 Q74 484 89 499 Q104 514 125 514 Q146 514 161 499 Q176 484 176 459 Q176 435 161 420 Q146 405 125 405 ZM125 -13 Q104 -13 89 2 Q74 17 74 41 Q74 66 89 81 Q104 96 125 96 Q146 96 161 81 Q176 66 176 41 Q176 17 161 2 Q146 -13 125 -13 Z" /><glyph glyph-name="semicolon" unicode=";" d="M125 405 Q104 405 89 420 Q74 435 74 459 Q74 484 89 499 Q104 514 125 514 Q146 514 161 499 Q176 484 176 459 Q176 435 161 420 Q146 405 125 405 ZM53 -138 Q140 -93 141 -4 Q137 -5 129 -5 Q77 -5 77 46 Q77 69 93 83 Q108 96 130 96 Q190 96 190 10 Q190 -115 70 -176 L53 -138 Z" /><glyph glyph-name="less" unicode="&lt;" d="M37 340 L37 395 L497 577 L497 523 L98 370 L98 365 L497 212 L497 158 L37 340 Z" /><glyph glyph-name="equal" unicode="=" d="M37 503 L497 503 L497 456 L37 456 L37 503 ZM37 274 L497 274 L497 228 L37 228 L37 274 Z" /><glyph glyph-name="greater" unicode="&gt;" d="M37 212 L437 365 L437 370 L37 523 L37 577 L497 395 L497 340 L37 158 L37 212 Z" /><glyph glyph-name="question" unicode="?" d="M179 203 Q166 302 249 410 Q337 524 337 581 Q337 634 308 667 Q275 705 215 705 Q132 705 76 636 L41 668 Q119 755 221 755 Q301 755 349 707 Q396 660 396 585 Q396 515 306 400 Q221 291 232 203 L179 203 ZM209 -13 Q188 -13 174 2 Q159 17 159 41 Q159 66 174 81 Q188 96 209 96 Q230 96 245 81 Q261 66 261 41 Q261 17 245 2 Q230 -13 209 -13 Z" /><glyph glyph-name="at" unicode="@" d="M433 -163 Q267 -163 164 -62 Q57 43 57 224 Q57 436 191 574 Q319 705 502 705 Q663 705 759 607 Q853 510 853 350 Q853 217 784 134 Q723 60 645 60 Q544 60 537 144 L535 144 Q464 67 399 67 Q344 67 309 106 Q271 147 271 220 Q271 310 326 386 Q388 470 479 470 Q539 470 570 416 L572 416 L583 461 L625 461 L585 250 Q550 105 650 105 Q708 105 755 168 Q806 238 806 346 Q806 489 725 574 Q642 660 498 660 Q341 660 226 542 Q105 417 105 227 Q105 67 198 -27 Q288 -119 437 -119 Q537 -119 621 -66 L641 -105 Q547 -163 433 -163 ZM408 112 Q462 112 524 184 L558 372 Q525 425 478 425 Q409 425 363 359 Q321 298 321 223 Q321 112 408 112 Z" /><glyph glyph-name="A" unicode="a" d="M419 293 L375 425 Q337 532 295 675 L291 675 Q260 565 212 425 L167 293 L419 293 ZM435 245 L151 245 L68 0 L8 0 L263 729 L325 729 L580 0 L516 0 L435 245 Z" /><glyph glyph-name="B" unicode="b" d="M106 729 L307 729 Q550 729 550 552 Q550 427 438 393 L438 388 Q594 361 594 213 Q594 110 520 54 Q448 0 322 0 L106 0 L106 729 ZM288 411 Q490 411 490 545 Q490 617 440 650 Q394 680 294 680 L166 680 L166 411 L288 411 ZM308 50 Q535 50 535 213 Q535 363 308 363 L166 363 L166 50 L308 50 Z" /><glyph glyph-name="C" unicode="c" d="M368 -13 Q231 -13 147 89 Q60 192 60 365 Q60 538 148 641 Q234 742 374 742 Q491 742 566 654 L532 615 Q467 688 374 688 Q258 688 191 601 Q123 515 123 367 Q123 217 190 129 Q257 41 371 41 Q472 41 552 129 L586 91 Q496 -13 368 -13 Z" /><glyph glyph-name="D" unicode="d" d="M106 729 L278 729 Q443 729 529 632 Q612 538 612 367 Q612 195 529 100 Q443 0 279 0 L106 0 L106 729 ZM272 51 Q411 51 483 138 Q549 220 549 367 Q549 514 483 594 Q412 679 272 679 L166 679 L166 51 L272 51 Z" /><glyph glyph-name="E" unicode="e" d="M106 729 L509 729 L509 678 L166 678 L166 412 L455 412 L455 361 L166 361 L166 52 L520 52 L520 0 L106 0 L106 729 Z" /><glyph glyph-name="F" unicode="f" d="M106 729 L508 729 L508 678 L166 678 L166 397 L455 397 L455 346 L166 346 L166 0 L106 0 L106 729 Z" /><glyph glyph-name="G" unicode="g" d="M376 -13 Q234 -13 148 89 Q60 192 60 365 Q60 538 151 641 Q239 742 385 742 Q503 742 587 654 L552 615 Q484 688 386 688 Q265 688 194 601 Q123 515 123 367 Q123 216 191 129 Q260 41 382 41 Q485 41 537 93 L537 312 L368 312 L368 363 L595 363 L595 70 Q517 -13 376 -13 Z" /><glyph glyph-name="I" unicode="i" d="M106 729 L166 729 L166 0 L106 0 L106 729 Z" /><glyph glyph-name="J" unicode="j" d="M227 -13 Q102 -13 42 96 L87 126 Q137 41 225 41 Q353 41 353 208 L353 729 L413 729 L413 202 Q413 -13 227 -13 Z" /><glyph glyph-name="K" unicode="k" d="M106 729 L166 729 L166 333 L168 333 L510 729 L581 729 L349 458 L614 0 L545 0 L309 411 L166 246 L166 0 L106 0 L106 729 Z" /><glyph glyph-name="L" unicode="l" d="M106 729 L166 729 L166 52 L498 52 L498 0 L106 0 L106 729 Z" /><glyph glyph-name="M" unicode="m" d="M106 729 L186 729 L393 150 L397 150 L451 310 L601 729 L681 729 L681 0 L624 0 L624 462 Q624 521 631 663 L627 663 L570 500 L417 78 L369 78 L215 500 L158 663 L154 663 Q161 521 161 462 L161 0 L106 0 L106 729 Z" /><glyph glyph-name="N" unicode="n" d="M106 729 L168 729 L466 228 L547 81 L552 81 Q544 225 544 297 L544 729 L601 729 L601 0 L539 0 L242 502 L160 648 L155 648 Q163 461 163 437 L163 0 L106 0 L106 729 Z" /><glyph glyph-name="O" unicode="o" d="M362 -13 Q228 -13 145 90 Q60 195 60 367 Q60 538 145 641 Q228 742 362 742 Q497 742 580 641 Q665 538 665 367 Q665 195 580 90 Q497 -13 362 -13 ZM362 41 Q471 41 537 130 Q603 219 603 367 Q603 515 537 602 Q471 688 362 688 Q253 688 189 602 Q123 515 123 367 Q123 219 189 130 Q254 41 362 41 Z" /><glyph glyph-name="P" unicode="p" d="M106 729 L295 729 Q561 729 561 524 Q561 417 491 361 Q423 308 299 308 L166 308 L166 0 L106 0 L106 729 ZM287 358 Q396 358 448 397 Q500 437 500 524 Q500 610 446 646 Q396 679 283 679 L166 679 L166 358 L287 358 Z" /><glyph glyph-name="S" unicode="s" d="M299 -13 Q148 -13 51 96 L88 138 Q174 41 299 41 Q379 41 427 80 Q474 118 474 181 Q474 241 437 276 Q412 299 345 329 L236 377 Q88 443 88 559 Q88 639 150 691 Q210 742 304 742 Q429 742 510 654 L476 615 Q405 688 304 688 Q234 688 192 654 Q149 620 149 564 Q149 481 273 427 L382 379 Q456 346 490 310 Q535 261 535 185 Q535 100 471 44 Q405 -13 299 -13 Z" /><glyph glyph-name="T" unicode="t" d="M261 678 L32 678 L32 729 L552 729 L552 678 L322 678 L322 0 L261 0 L261 678 Z" /><glyph glyph-name="U" unicode="u" d="M352 -13 Q103 -13 103 285 L103 729 L163 729 L163 288 Q163 41 352 41 Q545 41 545 288 L545 729 L602 729 L602 285 Q602 -13 352 -13 Z" /><glyph glyph-name="V" unicode="v" d="M4 729 L68 729 L274 66 L278 66 Q296 118 317 188 L485 729 L546 729 L309 0 L243 0 L4 729 Z" /><glyph glyph-name="W" unicode="w" d="M30 729 L92 729 L180 307 Q200 215 229 69 L233 69 Q251 149 289 307 L400 729 L459 729 L571 307 L627 69 L632 69 Q659 216 678 307 L766 729 L825 729 L665 0 L597 0 L468 487 L430 651 L426 651 Q420 622 406 570 Q392 514 386 487 L261 0 L193 0 L30 729 Z" /><glyph glyph-name="X" unicode="x" d="M236 377 L33 729 L99 729 L214 521 L273 420 L277 420 Q287 437 305 473 L446 729 L508 729 L305 374 L523 0 L458 0 L335 218 Q290 297 268 334 L264 334 Q213 236 203 218 L81 0 L19 0 L236 377 Z" /><glyph glyph-name="Y" unicode="y" d="M221 293 L2 729 L66 729 L211 427 Q234 378 249 348 L253 348 Q311 460 331 506 L438 729 L500 729 L281 293 L281 0 L221 0 L221 293 Z" /><glyph glyph-name="bracketleft" unicode="[" d="M108 784 L289 784 L289 748 L153 748 L153 -132 L289 -132 L289 -168 L108 -168 L108 784 Z" /><glyph glyph-name="bracketright" unicode="]" d="M26 -132 L162 -132 L162 748 L26 748 L26 784 L207 784 L207 -168 L26 -168 L26 -132 Z" /><glyph glyph-name="underscore" unicode="_" d="M13 -85 L541 -85 L541 -132 L13 -132 L13 -85 Z" /><glyph glyph-name="a" unicode="a" d="M218 -13 Q150 -13 108 23 Q63 63 63 134 Q63 221 145 269 Q224 314 403 335 Q407 496 281 496 Q194 496 113 435 L87 477 Q190 547 289 547 Q461 547 461 338 L461 0 L412 0 L406 68 L404 68 Q305 -13 218 -13 ZM230 36 Q308 36 403 119 L403 292 Q250 274 183 236 Q121 200 121 137 Q121 36 230 36 Z" /><glyph glyph-name="b" unicode="b" d="M314 -13 Q236 -13 156 54 L154 54 L147 0 L100 0 L100 795 L158 795 L158 567 L155 465 Q252 547 335 547 Q439 547 495 473 Q549 401 549 275 Q549 143 478 63 Q412 -13 314 -13 ZM309 38 Q388 38 437 103 Q487 169 487 275 Q487 496 324 496 Q251 496 158 411 L158 103 Q232 38 309 38 Z" /><glyph glyph-name="c" unicode="c" d="M300 -13 Q193 -13 126 60 Q56 136 56 266 Q56 395 130 473 Q200 547 303 547 Q386 547 459 482 L426 442 Q369 496 304 496 Q224 496 171 432 Q117 367 117 266 Q117 164 168 101 Q219 37 303 37 Q376 37 442 96 L470 56 Q391 -13 300 -13 Z" /><glyph glyph-name="d" unicode="d" d="M277 -13 Q175 -13 116 59 Q56 134 56 266 Q56 391 127 471 Q194 547 292 547 Q369 547 451 482 L447 578 L447 795 L505 795 L505 0 L457 0 L450 67 L448 67 Q368 -13 277 -13 ZM287 38 Q366 38 447 122 L447 430 Q373 496 298 496 Q221 496 170 430 Q118 364 118 266 Q118 161 162 100 Q207 38 287 38 Z" /><glyph glyph-name="e" unicode="e" d="M304 -13 Q198 -13 129 61 Q56 138 56 266 Q56 391 128 471 Q195 547 290 547 Q387 547 441 482 Q496 416 496 299 Q496 277 493 257 L115 257 Q117 159 171 98 Q224 36 310 36 Q386 36 452 82 L474 39 Q391 -13 304 -13 ZM443 303 Q443 398 402 448 Q362 497 291 497 Q223 497 175 446 Q123 392 115 303 L443 303 Z" /><glyph glyph-name="f" unicode="f" d="M312 744 Q279 759 249 759 Q167 759 167 642 L167 533 L288 533 L288 484 L167 484 L167 0 L109 0 L109 484 L35 484 L35 528 L109 533 L109 645 Q109 808 246 808 Q285 808 326 790 L312 744 Z" /><glyph glyph-name="g" unicode="g" d="M275 -254 Q175 -254 115 -215 Q55 -175 55 -108 Q55 -35 135 19 L135 24 Q87 52 87 110 Q87 165 146 209 L146 213 Q78 269 78 358 Q78 440 134 494 Q189 547 269 547 Q306 547 340 533 L522 533 L522 485 L402 485 Q457 437 457 357 Q457 275 402 222 Q349 169 269 169 Q221 169 183 191 Q141 158 141 117 Q141 50 241 50 L353 50 Q531 50 531 -73 Q531 -146 462 -198 Q388 -254 275 -254 ZM269 213 Q323 213 361 253 Q401 294 401 358 Q401 422 362 462 Q325 500 269 500 Q213 500 175 462 Q136 422 136 358 Q136 294 176 253 Q214 213 269 213 ZM282 -210 Q365 -210 421 -169 Q473 -132 473 -81 Q473 -3 352 -3 L243 -3 Q217 -3 176 6 Q110 -40 110 -101 Q110 -150 155 -180 Q201 -210 282 -210 Z" /><glyph glyph-name="h" unicode="h" d="M100 795 L158 795 L157 451 Q253 547 339 547 Q501 547 501 341 L501 0 L443 0 L443 333 Q443 495 326 495 Q251 495 158 399 L158 0 L100 0 L100 795 Z" /><glyph glyph-name="i" unicode="i" d="M100 533 L158 533 L158 0 L100 0 L100 533 ZM130 658 Q109 658 95 671 Q81 684 81 704 Q81 752 130 752 Q179 752 179 704 Q179 684 164 671 Q150 658 130 658 Z" /><glyph glyph-name="j" unicode="j" d="M33 -251 Q-8 -251 -38 -237 L-25 -191 Q6 -202 30 -202 Q71 -202 87 -170 Q100 -145 100 -88 L100 533 L159 533 L159 -90 Q159 -251 33 -251 ZM130 658 Q82 658 82 704 Q82 752 130 752 Q179 752 179 704 Q179 684 165 671 Q151 658 130 658 Z" /><glyph glyph-name="k" unicode="k" d="M100 795 L158 795 L158 219 L160 219 L415 533 L481 533 L307 322 L509 0 L445 0 L273 280 L158 144 L158 0 L100 0 L100 795 Z" /><glyph glyph-name="l" unicode="l" d="M171 -13 Q100 -13 100 79 L100 795 L158 795 L158 73 Q158 37 182 37 Q190 37 201 39 L210 -7 Q190 -13 171 -13 Z" /><glyph glyph-name="m" unicode="m" d="M100 533 L148 533 L155 452 L157 452 Q243 547 325 547 Q440 547 472 439 Q572 547 652 547 Q812 547 812 341 L812 0 L754 0 L754 333 Q754 495 639 495 Q571 495 485 399 L485 0 L427 0 L427 333 Q427 495 312 495 Q242 495 158 399 L158 0 L100 0 L100 533 Z" /><glyph glyph-name="n" unicode="n" d="M100 533 L148 533 L155 452 L157 452 Q254 547 339 547 Q501 547 501 341 L501 0 L443 0 L443 333 Q443 495 326 495 Q251 495 158 399 L158 0 L100 0 L100 533 Z" /><glyph glyph-name="o" unicode="o" d="M297 -13 Q196 -13 128 60 Q56 138 56 266 Q56 395 128 473 Q196 547 297 547 Q398 547 466 473 Q538 395 538 266 Q538 138 466 60 Q398 -13 297 -13 ZM297 37 Q376 37 427 101 Q478 165 478 266 Q478 367 427 432 Q376 496 297 496 Q219 496 168 432 Q117 367 117 266 Q117 165 168 101 Q218 37 297 37 Z" /><glyph glyph-name="p" unicode="p" d="M100 533 L148 533 L155 468 L157 468 Q260 547 335 547 Q439 547 495 473 Q549 401 549 275 Q549 143 478 63 Q412 -13 314 -13 Q241 -13 157 52 L158 -238 L100 -238 L100 533 ZM309 38 Q388 38 437 103 Q487 169 487 275 Q487 496 324 496 Q254 496 158 411 L158 103 Q235 38 309 38 Z" /><glyph glyph-name="q" unicode="q" d="M447 -35 L451 69 Q367 -13 277 -13 Q175 -13 116 59 Q56 134 56 266 Q56 391 127 471 Q194 547 292 547 Q371 547 449 483 L451 483 L458 533 L505 533 L505 -238 L447 -238 L447 -35 ZM287 38 Q366 38 447 122 L447 430 Q373 496 298 496 Q221 496 170 430 Q118 364 118 266 Q118 161 162 100 Q207 38 287 38 Z" /><glyph glyph-name="r" unicode="r" d="M100 533 L148 533 L155 434 L157 434 Q218 547 308 547 Q339 547 362 535 L350 483 Q327 492 301 492 Q211 492 158 358 L158 0 L100 0 L100 533 Z" /><glyph glyph-name="s" unicode="s" d="M231 -13 Q123 -13 35 60 L66 102 Q145 35 234 35 Q292 35 325 65 Q356 92 356 136 Q356 204 227 250 Q147 278 114 303 Q60 342 60 403 Q60 464 106 504 Q154 547 235 547 Q319 547 390 490 L360 450 Q296 498 233 498 Q177 498 146 470 Q118 445 118 406 Q118 367 157 341 Q179 325 242 302 Q330 269 359 248 Q414 207 414 139 Q414 75 367 32 Q316 -13 231 -13 Z" /><glyph glyph-name="t" unicode="t" d="M250 -13 Q113 -13 113 152 L113 484 L30 484 L30 528 L115 533 L122 687 L171 687 L171 533 L324 533 L324 484 L171 484 L171 148 Q171 37 260 37 Q289 37 325 52 L339 7 Q283 -13 250 -13 Z" /><glyph glyph-name="u" unicode="u" d="M253 -13 Q92 -13 92 192 L92 533 L150 533 L150 199 Q150 39 266 39 Q345 39 432 143 L432 533 L490 533 L490 0 L441 0 L436 88 L433 88 Q345 -13 253 -13 Z" /><glyph glyph-name="v" unicode="v" d="M13 533 L76 533 L191 206 Q223 107 244 52 L248 52 Q283 149 301 206 L417 533 L476 533 L280 0 L211 0 L13 533 Z" /><glyph glyph-name="w" unicode="w" d="M26 533 L88 533 L181 197 L215 52 L220 52 Q228 80 258 197 L353 533 L417 533 L512 197 Q535 107 551 52 L555 52 L592 197 L683 533 L740 533 L590 0 L515 0 L425 321 Q417 348 405 397 Q392 449 385 474 L380 474 Q358 378 339 319 L252 0 L182 0 L26 533 Z" /><glyph glyph-name="x" unicode="x" d="M195 279 L30 533 L94 533 L176 402 Q201 361 233 314 L237 314 L369 533 L430 533 L265 273 L445 0 L380 0 L289 141 Q263 189 228 238 L223 238 L77 0 L15 0 L195 279 Z" /><glyph glyph-name="y" unicode="y" d="M85 -240 Q52 -240 28 -229 L41 -180 Q63 -188 84 -188 Q171 -188 217 -53 L231 -8 L13 533 L76 533 L256 57 L261 57 L309 207 L418 533 L477 533 L269 -62 Q207 -240 85 -240 Z" /><glyph glyph-name="z" unicode="z" d="M32 31 L339 484 L65 484 L65 533 L414 533 L414 502 L107 50 L424 50 L424 0 L32 0 L32 31 Z" /><glyph glyph-name="braceleft" unicode="{" d="M249 -168 Q183 -168 156 -139 Q125 -107 125 -26 Q125 16 130 88 Q134 161 134 198 Q134 288 39 288 L39 328 Q134 328 134 415 Q134 454 130 527 Q125 600 125 641 Q125 723 156 755 Q183 784 249 784 L289 784 L289 748 L256 748 Q209 748 190 721 Q173 696 173 636 Q173 602 177 535 Q180 467 180 426 Q180 327 121 310 L121 306 Q180 288 180 189 Q180 148 177 81 Q173 14 173 -20 Q173 -79 190 -104 Q209 -132 256 -132 L289 -132 L289 -168 L249 -168 Z" /><glyph glyph-name="bar" unicode="|" d="M105 831 L149 831 L149 -277 L105 -277 L105 831 Z" /><glyph glyph-name="braceright" unicode="}" d="M26 -132 L59 -132 Q106 -132 124 -104 Q141 -80 141 -20 Q141 14 138 81 Q135 148 135 189 Q135 288 194 306 L194 310 Q135 327 135 426 Q135 467 138 535 Q141 602 141 636 Q141 696 124 721 Q106 748 59 748 L26 748 L26 784 L66 784 Q131 784 159 755 Q190 723 190 641 Q190 600 186 527 Q181 454 181 415 Q181 328 276 328 L276 288 Q181 288 181 198 Q181 161 186 88 Q190 16 190 -26 Q190 -107 159 -139 Q131 -168 66 -168 L26 -168 L26 -132 Z" /><glyph glyph-name="copyright" unicode="©" d="M411 -12 Q263 -12 162 89 Q56 193 56 357 Q56 520 162 624 Q263 723 411 723 Q559 723 660 624 Q766 520 766 357 Q766 193 660 89 Q559 -12 411 -12 ZM411 23 Q541 23 631 115 Q724 211 724 357 Q724 502 631 596 Q541 687 411 687 Q281 687 191 596 Q97 502 97 357 Q97 211 191 115 Q281 23 411 23 ZM417 138 Q334 138 280 196 Q222 257 222 357 Q222 450 283 509 Q340 565 422 565 Q496 565 556 503 L528 471 Q477 519 423 519 Q357 519 316 474 Q275 429 275 357 Q275 277 315 230 Q354 183 420 183 Q483 183 544 237 L568 202 Q497 138 417 138 Z" /><glyph glyph-name="degree" unicode="°" d="M175 491 Q122 491 85 527 Q46 565 46 624 Q46 684 85 722 Q122 758 175 758 Q228 758 265 722 Q304 684 304 624 Q304 565 265 527 Q228 491 175 491 ZM175 529 Q213 529 238 556 Q262 583 262 624 Q262 665 238 693 Q213 720 175 720 Q136 720 112 693 Q87 666 87 624 Q87 583 112 556 Q136 529 175 529 Z" /><glyph glyph-name="uni2207" unicode="&#x2207;" d="M158 675 L158 710 L840 710 L840 675 L531 -19 L469 -19 L158 675 ZM769 659 L229 659 L393 287 L497 44 L502 44 L604 287 L769 659 Z" /><glyph glyph-name="uni256D" unicode="&#x256d;" d="M480 -120 Q480 95 632 248 Q785 400 1000 400 L1000 360 Q801 360 661 219 Q520 79 520 -120 L480 -120 Z" /><glyph glyph-name="uni256E" unicode="&#x256e;" d="M480 -120 Q480 79 339 219 Q199 360 0 360 L0 400 Q215 400 368 248 Q520 95 520 -120 L480 -120 Z" /><glyph glyph-name="uni25BD" unicode="&#x25bd;" d="M970 748 L500 -66 L30 748 L970 748 ZM87 715 L500 0 L913 715 L87 715 Z" /><glyph glyph-name="uni3002" unicode="&#x3002;" d="M195 242 Q256 242 298 199 Q341 156 341 95 Q341 34 298 -9 Q256 -52 195 -52 Q134 -52 91 -9 Q48 34 48 95 Q48 156 91 199 Q134 242 195 242 ZM195 -13 Q240 -13 272 19 Q303 50 303 95 Q303 139 272 171 Q240 203 195 203 Q150 203 119 171 Q87 139 87 95 Q87 50 119 19 Q150 -13 195 -13 Z" /><glyph glyph-name="uni3042" unicode="&#x3042;" d="M436 169 Q564 285 627 453 Q617 454 597 454 Q512 454 417 419 Q416 398 416 357 Q416 271 436 169 ZM237 69 Q308 69 394 133 Q369 253 369 355 Q369 383 370 398 Q286 355 231 281 Q174 206 174 136 Q174 69 237 69 ZM689 488 Q784 465 839 401 Q891 340 891 258 Q891 147 813 71 Q729 -11 568 -37 L538 8 Q671 22 753 87 Q839 155 839 261 Q839 327 797 376 Q752 428 674 446 Q589 236 449 115 Q459 74 472 32 L424 17 Q416 44 406 82 Q313 18 231 18 Q183 18 154 46 Q123 77 123 131 Q123 223 198 315 Q268 401 372 448 Q377 539 384 607 Q358 606 308 606 Q231 606 157 612 L155 664 Q225 652 308 652 Q362 652 389 653 L399 743 Q401 773 401 783 L459 781 Q454 769 449 743 Q440 694 436 655 Q638 665 788 697 L789 645 Q621 617 430 609 Q423 531 419 467 Q510 498 595 498 Q611 498 641 496 L650 525 Q656 547 657 566 L712 552 Q709 546 705 533 L689 488 Z" /><glyph glyph-name="uni3044" unicode="&#x3044;" d="M205 686 Q201 651 199 605 Q195 487 207 357 Q221 221 261 142 Q301 62 358 62 Q436 62 491 267 L533 224 Q457 3 357 3 Q287 3 236 80 Q177 170 157 346 Q147 437 147 607 Q147 664 142 688 L205 686 ZM733 656 Q876 462 904 183 L852 162 Q824 454 683 638 L733 656 Z" /><glyph glyph-name="uni3046" unicode="&#x3046;" d="M737 338 Q737 408 686 451 Q635 494 553 494 Q457 494 276 443 Q254 437 200 417 L182 479 Q208 481 263 493 Q476 543 557 543 Q659 543 723 489 Q790 433 790 336 Q790 182 665 85 Q553 -3 356 -35 L324 14 Q512 39 619 117 Q737 202 737 338 ZM307 767 Q492 725 714 720 L705 669 Q474 684 298 716 L307 767 Z" /><glyph glyph-name="uni304C" unicode="&#x304c;" d="M931 680 Q888 767 846 818 L884 835 Q931 773 970 698 L931 680 ZM823 642 Q786 721 740 781 L779 798 Q823 737 862 660 L823 642 ZM408 770 Q402 742 400 726 Q386 629 371 563 Q477 571 498 571 Q649 571 649 415 Q649 176 591 60 Q554 -17 456 -17 Q398 -17 340 -2 L332 54 Q401 32 455 32 Q522 32 549 88 Q598 193 598 408 Q598 476 568 502 Q543 524 489 524 Q464 524 360 516 Q283 195 149 -18 L96 4 Q229 181 309 511 L160 496 Q126 493 83 487 L77 546 Q116 545 155 546 Q168 546 319 558 Q346 680 347 776 L408 770 ZM748 648 Q846 529 934 304 L885 279 Q812 501 702 625 L748 648 Z" /><glyph glyph-name="uni305F" unicode="&#x305f;" d="M540 475 Q618 483 715 483 Q817 483 885 475 L883 424 Q803 435 718 435 Q626 435 540 425 L540 475 ZM596 598 Q489 574 383 564 Q369 497 351 430 Q278 142 197 -21 L138 -2 Q224 147 301 440 Q313 483 330 559 Q267 554 224 554 Q161 554 112 558 L111 610 Q168 602 226 602 Q278 602 341 608 Q355 679 360 712 Q366 755 363 782 L427 777 Q418 742 412 707 L393 613 Q503 626 596 651 L596 598 ZM545 239 Q530 187 530 146 Q530 100 561 77 Q603 45 712 45 Q812 45 899 64 L897 10 Q806 -4 711 -4 Q481 -4 481 136 Q481 176 495 244 L545 239 Z" /><glyph glyph-name="uni3063" unicode="&#x3063;" d="M174 387 Q212 395 259 410 Q519 493 605 493 Q705 493 770 438 Q836 380 836 287 Q836 147 707 71 Q594 4 398 -8 L377 43 Q554 49 659 102 Q785 165 785 288 Q785 356 735 401 Q684 446 603 446 Q520 446 197 332 L174 387 Z" /><glyph glyph-name="uni3068" unicode="&#x3068;" d="M780 603 Q760 591 718 568 Q447 425 402 395 Q249 295 249 183 Q249 115 311 76 Q377 36 499 36 Q693 36 813 68 L812 10 Q686 -14 502 -14 Q361 -14 283 31 Q197 80 197 177 Q197 316 372 432 Q317 528 225 742 L277 764 Q339 596 414 460 Q472 495 569 546 Q678 602 693 611 Q737 638 751 650 L780 603 Z" /><glyph glyph-name="uni306B" unicode="&#x306b;" d="M461 660 Q640 626 856 660 L856 606 Q661 582 461 606 L461 660 ZM476 267 Q461 212 461 172 Q461 72 644 72 Q777 72 887 98 L888 43 Q788 23 647 23 Q413 23 413 163 Q413 199 428 272 L476 267 ZM252 742 L238 688 Q188 445 188 299 Q188 222 199 120 Q224 192 261 288 L293 264 Q235 115 223 55 Q218 30 219 12 L222 -19 L175 -23 Q140 103 140 293 Q140 388 187 692 Q192 727 192 747 L252 742 Z" /><glyph glyph-name="uni306D" unicode="&#x306d;" d="M641 50 Q752 50 788 172 Q714 215 634 215 Q591 215 559 192 Q526 168 526 135 Q526 50 641 50 ZM381 600 L362 570 Q348 549 341 536 Q337 487 336 465 Q531 639 666 639 Q760 639 811 558 Q859 484 859 363 Q859 261 845 194 Q900 157 960 93 L931 51 Q880 107 832 143 Q785 3 644 3 Q573 3 530 33 Q480 67 480 132 Q480 187 525 223 Q570 259 639 259 Q724 259 800 221 Q810 280 810 378 Q810 477 765 537 Q723 593 657 593 Q591 593 493 532 Q405 477 332 400 Q327 312 327 254 Q327 90 330 25 L333 -26 L275 -26 Q278 -11 278 24 Q279 73 279 140 Q280 211 280 259 Q280 275 284 361 Q220 265 100 96 L66 141 Q194 302 289 451 L293 508 Q295 545 297 564 L96 537 L91 592 Q109 591 143 593 Q235 601 300 612 L306 717 Q306 759 303 781 L367 778 Q361 747 348 622 L358 625 L381 600 Z" /><glyph glyph-name="uni3089" unicode="&#x3089;" d="M337 769 Q510 713 713 692 L700 642 Q496 669 324 718 L337 769 ZM300 599 Q293 561 279 446 Q264 331 258 298 Q401 432 596 432 Q700 432 769 376 Q837 320 837 235 Q837 99 711 31 Q578 -41 329 -21 L314 32 Q544 6 669 68 Q784 125 784 237 Q784 302 730 344 Q677 385 594 385 Q388 385 270 245 Q255 226 245 200 L192 212 Q231 378 243 606 L300 599 Z" /><glyph glyph-name="uni308A" unicode="&#x308a;" d="M328 778 Q293 656 278 461 Q307 560 382 637 Q467 725 561 725 Q657 725 716 635 Q776 543 776 392 Q776 37 367 -36 L336 11 Q724 68 724 391 Q724 518 683 594 Q638 678 554 678 Q463 678 379 571 Q302 472 288 366 Q280 305 289 235 L238 231 Q228 321 228 383 Q228 491 260 705 Q267 753 268 780 L328 778 Z" /><glyph glyph-name="uni30A2" unicode="&#x30a2;" d="M522 545 Q522 309 474 197 Q415 55 243 -26 L195 14 Q237 26 275 52 Q392 119 436 242 Q468 331 468 483 Q468 523 465 545 L522 545 ZM918 675 Q907 664 897 649 Q799 480 643 372 L599 408 Q756 495 838 653 L240 653 Q201 653 131 649 L131 710 Q184 702 240 702 L835 702 Q867 702 885 707 L918 675 Z" /><glyph glyph-name="uni30A4" unicode="&#x30a4;" d="M847 726 Q724 601 576 508 L576 69 Q576 5 581 -23 L519 -23 Q523 11 523 69 L523 477 Q346 376 129 310 L99 361 Q338 421 542 546 Q714 653 804 766 L847 726 Z" /><glyph glyph-name="uni30A6" unicode="&#x30a6;" d="M866 607 Q859 590 854 559 Q824 365 753 249 Q636 50 365 -24 L323 23 Q360 29 404 44 Q601 102 701 264 Q785 400 800 575 L204 575 L204 378 Q204 343 208 327 L151 327 Q154 347 154 379 L154 556 Q154 607 151 628 Q194 623 239 623 L465 623 L465 727 Q465 760 461 791 L522 791 Q517 762 517 727 L517 623 L771 623 Q808 623 831 630 L866 607 Z" /><glyph glyph-name="uni30A9" unicode="&#x30a9;" d="M796 453 Q830 453 854 457 L854 403 Q812 406 796 406 L636 406 Q642 42 642 6 Q642 -51 580 -51 Q550 -51 442 -45 L438 5 Q502 -6 565 -6 Q593 -6 593 23 Q593 115 589 353 Q464 165 226 39 L190 78 Q444 204 571 406 L271 406 Q239 406 206 403 L206 457 Q237 453 271 453 L588 453 L585 547 Q585 573 580 605 L638 605 Q635 586 635 547 Q635 497 636 453 L796 453 Z" /><glyph glyph-name="uni30AF" unicode="&#x30af;" d="M855 628 Q844 609 838 585 Q790 395 659 234 Q516 58 264 -32 L219 11 Q464 81 616 263 Q745 418 786 599 L415 599 Q311 448 161 350 L116 383 Q336 512 432 730 Q449 764 455 795 L515 774 L481 710 Q464 675 445 646 L758 646 Q794 646 810 654 L855 628 Z" /><glyph glyph-name="uni30B3" unicode="&#x30b3;" d="M777 -1 Q779 11 779 57 L272 57 Q203 57 168 54 L168 114 Q221 109 271 109 L779 109 L779 615 L283 615 Q244 615 181 612 L181 671 Q233 666 282 666 L767 666 Q812 666 834 667 Q832 625 832 599 L832 83 Q832 20 835 -1 L777 -1 Z" /><glyph glyph-name="uni30B5" unicode="&#x30b5;" d="M835 555 Q890 555 915 560 L915 503 Q903 506 835 506 L703 506 L703 470 Q703 256 648 151 Q589 37 427 -36 L384 5 Q527 64 584 148 Q653 251 653 463 L653 506 L340 506 L340 329 Q340 263 344 247 L286 247 L288 277 Q290 308 290 329 L290 506 L108 505 L73 503 L73 560 Q93 555 168 555 L290 555 L290 700 Q290 746 286 762 L344 762 L342 742 Q340 720 340 701 L340 555 L653 555 L653 692 Q653 715 651 742 L649 767 L708 767 Q703 747 703 692 L703 555 L835 555 Z" /><glyph glyph-name="uni30B7" unicode="&#x30b7;" d="M296 755 Q399 695 508 614 L476 571 Q386 644 268 712 L296 755 ZM167 37 Q351 69 500 155 Q743 297 872 517 L904 466 Q768 253 526 110 Q388 27 197 -15 L167 37 ZM148 531 Q273 464 362 400 L332 355 Q222 435 119 488 L148 531 Z" /><glyph glyph-name="uni30B9" unicode="&#x30b9;" d="M780 664 Q767 646 762 631 Q695 459 587 327 Q738 197 886 21 L843 -17 Q707 155 554 289 Q361 82 154 -10 L114 33 Q335 121 527 336 Q658 484 703 634 L284 634 Q265 634 228 632 L193 630 L193 689 Q223 684 284 684 L689 684 Q728 684 747 690 L780 664 Z" /><glyph glyph-name="uni30BB" unicode="&#x30bb;" d="M602 282 Q717 388 791 541 Q802 544 370 456 L370 139 Q370 83 401 64 Q434 43 526 43 Q689 43 836 71 L833 15 Q694 -6 517 -6 Q402 -6 357 28 Q319 57 319 126 L319 446 Q112 404 78 396 L67 452 Q120 458 319 496 L319 684 Q319 734 314 763 L376 763 Q370 720 370 684 L370 506 Q683 566 792 591 Q823 598 834 606 L871 577 Q863 565 851 545 Q740 351 647 255 L602 282 Z" /><glyph glyph-name="uni30BD" unicode="&#x30bd;" d="M277 23 Q500 113 636 319 Q733 465 764 659 Q770 689 770 718 L833 709 Q825 689 819 653 Q778 439 683 292 Q545 82 324 -17 L277 23 ZM191 701 Q259 600 356 423 L307 395 Q219 571 142 676 L191 701 Z" /><glyph glyph-name="uni30BF" unicode="&#x30bf;" d="M857 642 Q847 624 840 600 Q792 432 688 287 Q741 254 786 222 L751 177 Q730 194 656 245 Q502 60 250 -32 L204 9 Q447 80 612 273 Q495 348 374 415 L406 452 Q507 400 644 315 Q747 456 788 613 L416 613 Q307 455 151 349 L108 382 Q333 520 430 738 Q447 769 454 803 L513 783 L479 719 Q464 689 446 660 L759 660 Q793 660 812 668 L857 642 Z" /><glyph glyph-name="uni30C0" unicode="&#x30c0;" d="M723 637 Q756 637 775 645 L820 619 Q809 600 803 576 Q758 410 651 264 Q704 231 749 199 L715 154 Q672 188 619 222 Q465 37 213 -55 L168 -14 Q411 57 575 250 Q446 333 337 392 L370 429 Q471 377 608 292 Q713 433 751 590 L379 590 Q272 433 115 326 L71 359 Q297 498 394 715 Q411 749 417 780 L476 760 L442 696 Q427 666 409 637 L723 637 ZM757 797 Q802 733 840 660 L801 642 Q766 715 719 780 L757 797 ZM861 834 Q909 770 947 698 L908 680 Q867 762 824 817 L861 834 Z" /><glyph glyph-name="uni30C3" unicode="&#x30c3;" d="M471 565 Q527 429 547 352 L500 334 Q477 435 423 549 L471 565 ZM829 519 L817 484 Q774 293 673 167 Q548 10 352 -64 L309 -20 Q505 39 631 194 Q746 336 774 536 L829 519 ZM238 516 Q273 441 328 292 L280 274 Q236 418 191 497 L238 516 Z" /><glyph glyph-name="uni30C4" unicode="&#x30c4;" d="M445 735 Q501 613 541 476 L492 459 Q450 611 397 719 L445 735 ZM883 681 Q878 669 870 637 Q816 410 703 263 Q548 56 312 -23 L269 20 Q503 90 660 291 Q790 459 824 698 L883 681 ZM166 677 Q221 559 277 406 L226 388 Q181 540 116 658 L166 677 Z" /><glyph glyph-name="uni30C8" unicode="&#x30c8;" d="M813 274 Q644 367 402 441 L403 84 Q403 13 408 -22 L346 -22 Q351 12 351 84 L351 669 Q351 721 345 764 L408 764 Q402 708 402 669 L402 496 Q642 423 835 327 L813 274 Z" /><glyph glyph-name="uni30C9" unicode="&#x30c9;" d="M692 536 Q656 614 603 687 L641 705 Q697 628 732 555 L692 536 ZM370 484 Q599 415 802 314 L780 261 Q613 354 370 428 L371 72 Q371 2 375 -35 L314 -35 Q318 2 318 72 L318 657 Q318 717 312 751 L376 751 Q370 697 370 657 L370 484 ZM756 753 Q807 685 850 604 L810 584 Q768 670 718 734 L756 753 Z" /><glyph glyph-name="uni30CA" unicode="&#x30ca;" d="M843 526 Q898 526 916 529 L916 475 Q904 476 842 476 L553 476 L553 456 Q553 126 281 -27 L230 11 Q501 141 501 456 L501 476 L187 476 Q118 476 104 474 L104 530 Q132 526 185 526 L501 526 L501 675 Q501 731 494 764 L559 764 Q553 722 553 675 L553 526 L843 526 Z" /><glyph glyph-name="uni30CE" unicode="&#x30ce;" d="M783 712 L757 638 Q676 405 577 277 Q434 93 202 -4 L158 42 Q388 123 535 310 Q676 490 723 728 L783 712 Z" /><glyph glyph-name="uni30D5" unicode="&#x30d5;" d="M844 664 Q838 651 834 626 Q788 385 685 254 Q539 67 297 -8 L253 40 Q503 105 642 285 Q751 427 780 636 L242 636 Q192 636 154 633 L154 691 Q206 685 243 685 L767 685 Q792 685 806 689 L844 664 Z" /><glyph glyph-name="uni30D6" unicode="&#x30d6;" d="M836 649 Q829 633 825 611 Q779 371 677 239 Q529 52 288 -23 L244 25 Q494 90 633 270 Q744 414 772 621 L233 621 Q184 621 145 618 L145 676 Q197 670 234 670 L758 670 Q783 670 797 674 L836 649 ZM876 850 Q920 788 959 718 L920 701 Q865 798 837 833 L876 850 ZM753 825 Q797 762 835 693 L796 674 Q761 745 715 808 L753 825 Z" /><glyph glyph-name="uni30D7" unicode="&#x30d7;" d="M877 639 Q906 639 927 659 Q948 680 948 709 Q948 738 927 760 Q906 781 877 781 Q848 781 827 760 Q806 738 806 709 Q806 680 827 659 Q848 639 877 639 ZM777 670 Q770 687 770 709 Q770 754 801 786 Q832 817 877 817 Q921 817 953 786 Q985 754 985 709 Q985 665 953 633 Q921 602 877 602 Q850 602 826 615 L825 611 Q779 371 677 239 Q529 52 288 -23 L244 25 Q494 90 633 270 Q744 414 772 621 L233 621 Q184 621 145 618 L145 676 Q197 670 234 670 L777 670 Z" /><glyph glyph-name="uni30DE" unicode="&#x30de;" d="M915 636 Q905 626 895 612 Q742 364 519 197 Q642 74 698 4 L652 -32 Q607 30 477 164 Q356 285 243 364 L284 397 Q368 337 481 233 Q710 400 828 614 L205 614 Q149 614 111 610 L111 669 Q158 664 205 664 L826 664 Q861 664 873 669 L915 636 Z" /><glyph glyph-name="uni30DF" unicode="&#x30df;" d="M289 742 Q582 703 801 627 L780 577 Q573 654 270 694 L289 742 ZM243 481 Q584 419 737 362 L715 313 Q525 389 223 433 L243 481 ZM187 187 Q546 130 769 37 L747 -12 Q545 81 167 139 L187 187 Z" /><glyph glyph-name="uni30E5" unicode="&#x30e5;" d="M785 74 Q816 74 852 76 L852 24 Q836 25 788 25 L227 25 Q203 25 153 23 L153 77 Q188 74 227 74 L612 74 Q659 334 663 441 L318 441 Q293 441 249 439 L249 494 Q293 490 317 490 L649 490 Q676 490 684 494 L724 475 Q719 458 719 451 Q708 341 665 74 L785 74 Z" /><glyph glyph-name="uni30E7" unicode="&#x30e7;" d="M711 -45 Q712 -37 712 -4 L297 -4 L216 -6 L216 48 Q250 44 296 44 L712 44 L712 249 L327 249 Q283 249 249 247 L249 300 Q309 296 326 296 L712 296 L712 489 L319 489 L229 487 L229 539 Q252 536 319 536 L709 536 L762 537 Q761 528 761 497 L761 0 Q761 -19 763 -45 L711 -45 Z" /><glyph glyph-name="uni30E9" unicode="&#x30e9;" d="M863 484 Q855 470 852 461 Q811 286 708 173 Q578 32 350 -31 L310 15 Q530 59 665 203 Q761 305 793 453 L234 453 Q196 453 148 450 L148 507 Q196 501 234 501 L780 501 Q810 501 825 507 L863 484 ZM236 731 Q269 727 317 727 L716 727 Q767 727 796 731 L796 676 Q774 678 715 678 L317 678 Q288 678 236 676 L236 731 Z" /><glyph glyph-name="uni30EA" unicode="&#x30ea;" d="M296 741 Q293 716 293 672 L293 340 Q293 293 296 270 L236 270 Q240 298 240 340 L240 672 Q240 718 236 741 L296 741 ZM760 748 Q757 715 757 670 L757 529 Q757 346 735 259 Q715 185 659 115 Q587 24 424 -32 L382 12 Q541 56 620 150 Q673 213 690 295 Q705 367 705 530 L705 670 Q705 711 700 748 L760 748 Z" /><glyph glyph-name="uni30EB" unicode="&#x30eb;" d="M81 20 Q209 110 258 269 Q288 367 288 676 Q288 709 282 737 L342 737 Q338 705 338 676 Q338 369 307 254 Q260 91 129 -13 L81 20 ZM536 21 Q542 41 542 67 L542 675 Q542 698 538 742 L597 742 Q594 726 594 675 L594 66 Q797 160 912 333 L943 289 Q817 117 600 10 Q587 4 571 -9 L536 21 Z" /><glyph glyph-name="uni30EC" unicode="&#x30ec;" d="M238 27 Q245 42 245 67 L245 656 Q245 704 239 734 L303 734 Q297 700 297 657 L297 61 Q458 100 613 192 Q775 289 864 408 L894 364 Q699 116 306 9 Q280 0 274 -3 L238 27 Z" /><glyph glyph-name="uni30ED" unicode="&#x30ed;" d="M210 619 L210 108 L794 108 L794 619 L210 619 ZM846 110 Q846 30 848 0 L792 0 Q791 -6 794 59 L210 59 Q213 -12 212 0 L157 0 Q159 34 159 109 L159 605 Q159 649 158 671 Q196 669 238 669 L766 669 Q821 669 848 671 Q846 649 846 605 L846 110 Z" /><glyph glyph-name="uni30F3" unicode="&#x30f3;" d="M219 716 Q358 624 471 513 L432 474 Q300 603 184 679 L219 716 ZM157 44 Q377 78 566 200 Q782 341 881 556 L912 503 Q792 282 596 156 Q407 34 190 -8 L157 44 Z" /><glyph glyph-name="uni30FC" unicode="&#x30fc;" d="M108 415 Q160 411 235 411 L789 411 Q851 411 891 415 L891 353 Q837 356 790 356 L235 356 Q149 356 108 353 L108 415 Z" /><glyph glyph-name="uni30FE" unicode="&#x30fe;" d="M572 681 Q614 622 666 531 L623 512 Q573 609 532 663 L572 681 ZM700 722 Q748 653 793 573 L751 554 Q695 659 659 704 L700 722 ZM330 563 Q536 380 702 154 L654 117 Q505 342 285 528 L330 563 Z" /><glyph glyph-name="uni2F00" unicode="&#x2f00;&#x4e00;" d="M955 417 L955 364 L49 364 L49 417 L955 417 Z" /><glyph glyph-name="uni4E09" unicode="&#x4e09;" d="M877 735 L877 687 L127 687 L127 735 L877 735 ZM799 407 L799 359 L187 359 L187 407 L799 407 ZM932 55 L932 7 L68 7 L68 55 L932 55 Z" /><glyph glyph-name="uni4E0A" unicode="&#x4e0a;" d="M944 22 L944 -26 L57 -26 L57 22 L441 22 L441 816 L491 816 L491 496 L876 496 L876 449 L491 449 L491 22 L944 22 Z" /><glyph glyph-name="uni4F7F" unicode="&#x4f7f;" d="M336 821 Q294 714 229 605 L229 -78 L183 -78 L183 534 Q123 448 58 383 Q44 406 27 427 Q194 583 292 835 L336 821 ZM606 332 Q607 354 607 398 L607 512 L394 512 L394 332 L606 332 ZM654 512 L654 398 Q654 354 653 332 L873 332 L873 512 L654 512 ZM649 289 Q637 165 577 86 Q732 -4 962 -32 Q949 -45 932 -77 Q704 -43 548 52 Q466 -32 310 -78 Q294 -50 282 -39 Q433 2 509 78 Q407 149 351 248 L392 264 Q442 177 538 112 Q591 182 603 289 L349 289 L349 555 L607 555 L607 669 L315 669 L315 714 L607 714 L607 830 L654 830 L654 714 L955 714 L955 669 L654 669 L654 555 L919 555 L919 289 L649 289 Z" /><glyph glyph-name="uni500B" unicode="&#x500b;" d="M296 816 Q263 719 214 620 L214 -74 L168 -74 L168 535 Q111 439 52 371 Q37 398 23 415 Q168 574 252 827 L296 816 ZM740 360 L531 360 L531 174 L740 174 L740 360 ZM655 523 L655 400 L781 400 L781 134 L491 134 L491 400 L613 400 L613 523 L440 523 L440 564 L613 564 L613 684 L655 684 L655 564 L830 564 L830 523 L655 523 ZM870 32 L870 722 L389 722 L389 32 L870 32 ZM916 767 L916 -65 L870 -65 L870 -12 L389 -12 L389 -72 L344 -72 L344 767 L916 767 Z" /><glyph glyph-name="uni2F0A" unicode="&#x2f0a;&#x5165;" d="M532 769 Q532 225 960 -31 Q938 -47 920 -69 Q583 136 506 530 Q394 107 86 -71 Q69 -52 43 -32 Q363 135 465 588 L497 582 Q487 648 485 721 L228 721 L228 769 L532 769 Z" /><glyph glyph-name="uni5168" unicode="&#x5168;" d="M516 833 Q685 596 955 451 Q940 436 922 410 Q647 573 496 785 Q354 567 79 401 Q71 417 49 439 Q330 601 470 833 L516 833 ZM522 2 L926 2 L926 -43 L77 -43 L77 2 L473 2 L473 192 L160 192 L160 236 L473 236 L473 417 L202 417 L202 462 L805 462 L805 417 L522 417 L522 236 L839 236 L839 192 L522 192 L522 2 Z" /><glyph glyph-name="uni5176" unicode="&#x5176;" d="M298 185 L703 185 L703 317 L298 317 L298 185 ZM298 660 L298 538 L703 538 L703 660 L298 660 ZM298 361 L703 361 L703 494 L298 494 L298 361 ZM942 140 L59 140 L59 185 L250 185 L250 660 L85 660 L85 705 L250 705 L250 831 L298 831 L298 705 L703 705 L703 831 L751 831 L751 705 L920 705 L920 660 L751 660 L751 185 L942 185 L942 140 ZM416 83 Q290 1 82 -71 Q71 -51 50 -32 Q256 30 369 112 L416 83 ZM617 108 Q797 46 943 -34 L904 -69 Q784 3 586 76 L617 108 Z" /><glyph glyph-name="uni51CF" unicode="&#x51cf;" d="M902 686 Q856 744 769 806 L799 831 Q890 771 933 715 L902 686 ZM206 580 Q162 656 69 742 L103 767 Q203 679 242 611 L206 580 ZM235 385 Q165 192 89 35 L46 62 Q121 202 198 412 L235 385 ZM454 351 L454 179 L603 179 L603 351 L454 351 ZM454 139 L454 90 L416 90 L416 392 L641 392 L641 139 L454 139 ZM661 483 L394 483 L394 524 L661 524 L661 483 ZM905 476 Q858 297 774 170 Q818 -28 884 -28 Q916 -28 923 119 Q941 101 962 94 Q954 -10 936 -44 Q920 -74 879 -75 Q791 -75 740 123 Q650 7 513 -70 Q498 -50 477 -36 Q631 43 727 180 Q693 350 680 618 L353 618 L353 409 Q353 87 233 -75 Q223 -64 196 -49 Q308 101 308 409 L308 663 L677 663 Q673 769 672 833 L720 833 Q720 743 723 663 L941 663 L941 618 L725 618 Q734 389 762 233 Q825 341 861 485 L905 476 Z" /><glyph glyph-name="uni521D" unicode="&#x521d;" d="M392 205 Q343 273 263 361 L263 -73 L216 -73 L216 326 Q142 242 62 181 Q51 203 33 221 Q245 373 349 601 L61 601 L61 646 L216 646 L216 833 L263 833 L263 646 L373 646 L382 648 L410 630 Q365 517 277 399 Q297 377 319 355 Q377 426 396 460 L429 435 Q383 372 341 330 L423 240 L392 205 ZM932 701 Q915 29 870 -25 Q848 -56 801 -61 Q754 -64 660 -57 Q658 -28 645 -8 Q708 -14 786 -14 Q815 -15 826 2 Q868 48 883 686 L647 686 Q640 410 601 261 Q541 33 384 -74 Q368 -54 345 -40 Q498 59 556 280 Q593 422 599 686 L414 686 L414 732 L932 732 L932 701 Z" /><glyph glyph-name="uni523B" unicode="&#x523b;" d="M478 545 Q337 305 88 166 Q76 184 54 201 Q152 252 243 334 Q168 411 60 480 L88 513 Q118 494 137 480 Q205 558 265 650 L57 650 L57 695 L296 695 L296 827 L343 827 L343 695 L579 695 L579 650 L313 650 L321 646 Q253 544 171 456 Q235 408 276 365 Q375 459 436 563 L478 545 ZM564 366 Q498 253 395 152 Q533 33 581 -24 L544 -59 Q475 24 360 119 Q229 -1 73 -74 Q55 -49 38 -36 Q357 106 521 385 L564 366 ZM632 721 L678 721 L678 169 L632 169 L632 721 ZM906 814 L906 -4 Q906 -55 868 -65 Q839 -75 714 -74 Q709 -52 696 -27 Q729 -28 834 -28 Q859 -27 859 -5 L859 814 L906 814 Z" /><glyph glyph-name="uni5316" unicode="&#x5316;" d="M376 801 Q331 696 258 587 L258 -71 L211 -71 L211 521 Q139 426 61 357 Q48 382 29 402 Q223 562 330 816 L376 801 ZM838 -11 Q881 -11 895 27 Q908 61 913 177 Q934 159 960 154 Q952 29 931 -11 Q907 -57 838 -57 L613 -57 Q543 -57 517 -34 Q491 -10 491 58 L491 810 L539 810 L539 419 Q767 549 867 645 L901 605 Q795 512 539 371 L539 56 Q539 16 554 3 Q568 -11 613 -11 L838 -11 Z" /><glyph glyph-name="uni5343" unicode="&#x5343;" d="M944 390 L523 390 L523 -74 L474 -74 L474 390 L58 390 L58 437 L474 437 L474 701 Q303 675 125 657 Q122 673 111 700 Q600 750 804 816 L841 776 Q725 740 523 707 L523 437 L944 437 L944 390 Z" /><glyph glyph-name="uni53D6" unicode="&#x53d6;" d="M408 721 L181 721 L181 567 L408 567 L408 721 ZM181 136 L408 170 L408 314 L181 314 L181 136 ZM408 522 L181 522 L181 359 L408 359 L408 522 ZM455 721 L455 -69 L408 -69 L408 125 Q190 89 43 68 L34 116 L135 130 L135 721 L52 721 L52 767 L529 767 L529 721 L455 721 ZM923 683 Q882 379 750 181 Q843 44 971 -19 Q955 -32 937 -59 Q811 9 720 139 Q628 18 499 -54 Q481 -27 467 -16 Q597 51 692 183 Q587 359 535 629 L581 638 Q627 391 722 227 Q831 399 870 643 L506 643 L506 690 L884 690 L893 692 L923 683 Z" /><glyph glyph-name="uni53EF" unicode="&#x53ef;" d="M217 498 L217 228 L521 228 L521 498 L217 498 ZM217 181 L217 100 L170 100 L170 545 L569 545 L569 181 L217 181 ZM942 712 L816 712 L816 8 Q816 -51 772 -63 Q738 -72 573 -72 Q566 -45 552 -19 Q667 -23 740 -20 Q767 -17 767 9 L767 712 L61 712 L61 759 L942 759 L942 712 Z" /><glyph glyph-name="uni53F2" unicode="&#x53f2;" d="M476 406 L476 620 L180 620 L180 406 L476 406 ZM525 620 L525 406 L827 406 L827 620 L525 620 ZM523 359 Q514 185 416 91 Q575 -6 952 -28 Q937 -46 930 -76 Q542 -49 379 58 Q272 -25 80 -72 Q69 -49 52 -29 Q238 14 338 87 Q240 165 183 297 L224 313 Q280 189 375 118 Q466 203 475 359 L133 359 L133 667 L476 667 L476 830 L525 830 L525 667 L876 667 L876 359 L523 359 Z" /><glyph glyph-name="uni5404" unicode="&#x5404;" d="M255 228 L255 17 L736 17 L736 228 L255 228 ZM207 274 L785 274 L785 -76 L736 -76 L736 -27 L255 -27 L255 -79 L207 -79 L207 274 ZM304 664 Q384 567 504 489 Q641 575 721 679 L318 679 L304 664 ZM798 703 Q713 572 547 461 Q740 345 958 299 Q943 281 927 255 Q695 312 505 435 Q302 312 57 252 Q50 276 34 296 Q258 344 463 463 Q351 541 274 633 Q195 555 102 497 Q84 518 64 531 Q273 652 381 840 L426 823 Q396 773 356 723 L757 723 L765 725 L798 703 Z" /><glyph glyph-name="uni540D" unicode="&#x540d;" d="M832 13 L832 290 L378 290 L378 13 L832 13 ZM343 687 Q304 642 258 599 Q387 512 464 421 Q602 545 670 687 L343 687 ZM880 -75 L832 -75 L832 -32 L378 -32 L378 -73 L331 -73 L331 264 Q210 188 69 142 Q56 171 41 184 Q250 246 426 388 Q350 479 224 569 Q155 511 82 469 Q70 486 48 504 Q275 631 386 835 L441 824 Q416 780 379 732 L696 732 L705 734 L736 718 Q645 498 434 335 L880 335 L880 -75 Z" /><glyph glyph-name="uni589E" unicode="&#x589e;" d="M469 245 L469 148 L803 148 L803 245 L469 245 ZM803 10 L803 109 L469 109 L469 10 L803 10 ZM422 285 L851 285 L851 -70 L803 -70 L803 -31 L469 -31 L469 -73 L422 -73 L422 285 ZM498 551 Q534 487 547 427 L512 415 Q499 471 463 541 L498 551 ZM709 427 Q745 501 762 552 L797 536 Q761 454 737 414 L709 427 ZM862 577 L654 577 L654 395 L862 395 L862 577 ZM410 395 L614 395 L614 577 L410 577 L410 395 ZM765 803 Q842 664 976 578 Q961 569 942 543 Q918 561 905 572 L905 354 L369 354 L369 567 Q345 544 331 534 L308 558 L308 542 L212 542 L212 211 L333 260 L344 216 L54 95 L35 143 Q100 166 165 193 L165 542 L50 542 L50 588 L165 588 L165 818 L212 818 L212 588 L308 588 L308 577 Q421 664 481 779 L525 766 Q486 693 419 618 L854 618 Q783 687 738 760 L562 760 L562 803 L765 803 Z" /><glyph glyph-name="uni2F24" unicode="&#x2f24;&#x5927;" d="M545 488 Q664 97 951 -27 Q935 -40 915 -72 Q624 67 499 474 Q419 76 85 -73 Q70 -48 49 -34 Q372 104 453 488 L67 488 L67 536 L461 536 Q477 640 480 832 L530 832 Q528 646 511 536 L937 536 L937 488 L545 488 Z" /><glyph glyph-name="uni2F26" unicode="&#x2f26;&#x5b50;" d="M949 334 L526 334 L526 -1 Q526 -56 483 -65 Q449 -75 292 -75 Q285 -52 271 -25 Q385 -29 451 -26 Q478 -24 478 -2 L478 334 L54 334 L54 382 L478 382 L478 544 L515 544 Q652 614 765 712 L156 712 L156 759 L815 759 L825 762 L862 735 Q729 605 526 501 L526 382 L949 382 L949 334 Z" /><glyph glyph-name="uni5B57" unicode="&#x5b57;" d="M136 498 L89 498 L89 718 L475 718 L475 836 L524 836 L524 718 L912 718 L912 498 L863 498 L863 671 L136 671 L136 498 ZM926 246 L526 246 L526 -6 Q526 -53 490 -63 Q462 -71 331 -71 Q327 -53 309 -25 Q428 -27 455 -25 Q477 -24 477 -7 L477 246 L77 246 L77 293 L477 293 L477 374 L512 374 Q609 429 684 499 L233 499 L233 545 L729 545 L740 547 L773 523 Q671 414 526 337 L526 293 L926 293 L926 246 Z" /><glyph glyph-name="uni5B8C" unicode="&#x5b8c;" d="M134 524 L86 524 L86 719 L474 719 L474 833 L523 833 L523 719 L914 719 L914 524 L865 524 L865 673 L134 673 L134 524 ZM222 495 L222 540 L779 540 L779 495 L222 495 ZM850 -9 Q881 -9 890 16 Q899 40 901 130 Q922 118 946 111 Q941 10 924 -21 Q906 -54 853 -54 L683 -54 Q624 -54 604 -38 Q584 -23 584 25 L584 308 L383 308 Q363 154 302 71 Q229 -28 72 -74 Q59 -50 42 -35 Q192 5 259 95 Q315 170 332 308 L60 308 L60 354 L939 354 L939 308 L631 308 L631 25 Q631 4 641 -2 Q651 -9 685 -9 L850 -9 Z" /><glyph glyph-name="uni5E38" unicode="&#x5e38;" d="M826 804 Q769 724 725 677 L687 694 Q737 752 779 825 L826 804 ZM268 676 Q239 734 181 803 L223 822 Q283 755 314 698 L268 676 ZM292 380 L719 380 L719 499 L292 499 L292 380 ZM850 32 Q850 -11 818 -21 Q790 -29 661 -29 Q658 -15 643 15 Q748 12 782 14 Q801 17 801 31 L801 199 L537 199 L537 -74 L489 -74 L489 199 L209 199 L209 -28 L161 -28 L161 243 L489 243 L489 340 L246 340 L246 539 L767 539 L767 340 L537 340 L537 243 L850 243 L850 32 ZM913 667 L913 469 L865 469 L865 623 L142 623 L142 469 L96 469 L96 667 L486 667 L486 834 L535 834 L535 667 L913 667 Z" /><glyph glyph-name="uni5F25" unicode="&#x5f25;" d="M365 354 Q365 336 363 327 Q342 -5 303 -48 Q283 -69 244 -72 Q203 -74 129 -69 Q127 -43 115 -22 Q175 -28 229 -28 Q253 -28 264 -16 Q296 16 315 309 L106 309 Q102 287 97 267 L50 275 Q76 381 102 558 L311 558 L311 744 L75 744 L75 790 L357 790 L357 512 L143 512 L115 354 L365 354 ZM554 427 Q504 205 416 75 Q396 90 376 101 Q460 219 508 436 L554 427 ZM704 612 L704 -6 Q704 -51 671 -64 Q642 -72 521 -72 Q515 -48 502 -26 Q610 -28 635 -26 Q657 -26 657 -6 L657 612 L497 612 Q451 511 397 439 Q379 455 353 469 Q462 601 524 834 L573 823 Q550 742 517 658 L951 658 L951 612 L704 612 ZM844 441 Q935 242 967 92 L924 78 Q892 226 803 427 L844 441 Z" /><glyph glyph-name="uni5FB4" unicode="&#x5fb4;" d="M620 507 L296 507 L296 751 L335 751 L335 549 L434 549 L434 833 L477 833 L477 549 L579 549 L579 751 L620 751 L620 507 ZM252 816 Q177 692 64 594 Q58 604 35 630 Q147 723 207 833 L252 816 ZM275 624 Q246 564 202 496 L202 -70 L157 -70 L157 431 Q103 358 53 308 Q39 329 21 347 Q152 471 231 639 L275 624 ZM717 588 Q713 574 710 567 Q734 366 783 230 Q840 361 862 588 L717 588 ZM908 588 Q880 323 805 175 Q869 30 967 -36 Q945 -54 934 -73 Q839 -3 779 129 Q700 2 557 -75 Q543 -56 525 -40 Q680 37 758 179 Q710 303 681 493 Q657 436 630 397 L611 414 L611 374 L478 374 L478 259 L612 259 L612 218 L478 218 L478 92 L635 110 L635 70 Q403 40 275 25 L266 69 L434 87 L434 218 L310 218 L310 259 L434 259 L434 374 L290 374 L290 416 L609 416 Q599 425 593 428 Q685 560 729 834 L775 827 Q755 714 731 632 L960 632 L960 588 L908 588 Z" /><glyph glyph-name="uni5FB5" unicode="&#x5fb5;" d="M623 547 L304 547 L304 766 L343 766 L343 588 L440 588 L440 833 L481 833 L481 588 L582 588 L582 766 L623 766 L623 547 ZM252 816 Q177 692 64 594 Q58 604 35 630 Q147 723 207 833 L252 816 ZM275 624 Q246 564 202 496 L202 -70 L157 -70 L157 431 Q103 358 53 308 Q39 329 21 347 Q152 471 231 639 L275 624 ZM630 27 Q440 0 297 -19 L284 23 Q305 25 438 41 L438 163 L273 163 L273 204 L438 204 L438 304 Q364 293 298 287 Q295 303 283 323 Q480 344 578 375 L608 340 Q551 324 482 312 L482 204 L648 204 L648 163 L482 163 L482 46 L628 65 L630 27 ZM725 578 Q721 561 714 537 Q738 358 786 222 Q846 360 871 578 L725 578 ZM915 578 Q883 319 808 167 Q872 21 968 -35 Q946 -55 935 -72 Q845 -12 783 120 Q713 2 600 -75 Q591 -62 567 -40 Q692 37 762 171 Q717 286 689 456 Q670 403 645 358 Q626 379 609 390 Q618 404 628 426 L279 426 L279 470 L629 470 L629 429 Q694 570 722 832 L769 826 Q755 714 735 622 L954 622 L954 578 L915 578 Z" /><glyph glyph-name="uni6240" unicode="&#x6240;" d="M490 729 L67 729 L67 774 L490 774 L490 729 ZM153 563 L153 359 L415 359 L415 563 L153 563 ZM153 314 Q151 56 66 -74 Q50 -56 28 -44 Q107 77 107 329 L107 607 L462 607 L462 314 L153 314 ZM960 446 L837 446 L837 -73 L790 -73 L790 446 L583 446 Q579 106 420 -70 Q401 -46 383 -37 Q537 132 537 470 L537 729 L583 715 Q798 770 889 819 L932 784 Q813 726 583 673 L583 492 L960 492 L960 446 Z" /><glyph glyph-name="uni2F42" unicode="&#x2f42;&#x6587;" d="M258 610 Q341 377 497 221 Q650 371 735 610 L258 610 ZM791 610 Q699 348 533 187 Q709 31 955 -27 Q935 -47 920 -73 Q669 -7 495 152 Q334 11 79 -73 Q69 -49 47 -27 Q301 49 459 187 Q297 352 206 610 L55 610 L55 657 L475 657 L475 833 L523 833 L523 657 L949 657 L949 610 L791 610 Z" /><glyph glyph-name="uni65B0" unicode="&#x65b0;" d="M502 682 L67 682 L67 725 L263 725 L263 832 L310 832 L310 725 L502 725 L502 682 ZM336 515 Q370 582 393 672 L438 660 Q406 565 377 503 L336 515 ZM177 504 Q170 578 133 662 L173 670 Q212 589 219 515 L177 504 ZM448 76 Q406 125 310 207 L310 -71 L263 -71 L263 230 Q175 87 71 7 Q52 30 36 42 Q158 120 249 286 L56 286 L56 330 L263 330 L263 451 L53 451 L53 494 L517 494 L517 451 L310 451 L310 330 L510 330 L510 286 L310 286 L310 254 Q411 178 478 114 L448 76 ZM953 447 L829 447 L829 -67 L782 -67 L782 447 L603 447 L603 400 Q603 77 441 -78 Q430 -59 407 -45 Q557 96 557 400 L557 750 L600 735 Q807 779 895 821 L935 785 Q828 737 603 694 L603 492 L953 492 L953 447 Z" /><glyph glyph-name="uni2F46" unicode="&#x2f46;&#x65e0;" d="M493 416 Q467 230 382 119 Q282 -11 79 -75 Q67 -54 48 -36 Q243 22 339 142 Q421 244 446 416 L58 416 L58 463 L452 463 Q460 533 464 718 L121 718 L121 764 L885 764 L885 718 L511 718 Q509 565 499 463 L944 463 L944 416 L493 416 ZM843 -14 Q884 -14 896 16 Q907 45 912 153 Q928 140 959 131 Q952 13 932 -22 Q910 -61 845 -61 L632 -61 Q564 -61 540 -43 Q516 -25 516 28 L516 375 L565 375 L565 28 Q565 2 578 -6 Q591 -14 633 -14 L843 -14 Z" /><glyph glyph-name="uni660E" unicode="&#x660e;" d="M134 722 L134 504 L356 504 L356 722 L134 722 ZM356 228 L356 459 L134 459 L134 228 L356 228 ZM134 183 L134 86 L88 86 L88 767 L402 767 L402 183 L134 183 ZM871 295 L871 499 L555 499 L555 436 Q555 360 547 295 L871 295 ZM555 743 L555 544 L871 544 L871 743 L555 743 ZM918 3 Q918 -50 881 -62 Q849 -70 713 -70 Q707 -45 694 -22 Q795 -25 846 -22 Q871 -21 871 3 L871 250 L540 250 Q502 39 355 -79 Q345 -64 321 -45 Q508 102 508 437 L508 789 L918 789 L918 3 Z" /><glyph glyph-name="uni66F8" unicode="&#x66f8;" d="M237 188 L237 114 L770 114 L770 188 L237 188 ZM770 -2 L770 77 L237 77 L237 -2 L770 -2 ZM190 227 L818 227 L818 -73 L770 -73 L770 -40 L237 -40 L237 -75 L190 -75 L190 227 ZM521 539 L766 539 L766 611 L521 611 L521 539 ZM521 651 L766 651 L766 721 L521 721 L521 651 ZM941 324 L941 283 L61 283 L61 324 L473 324 L473 395 L127 395 L127 433 L473 433 L473 501 L158 501 L158 539 L473 539 L473 611 L62 611 L62 651 L473 651 L473 721 L170 721 L170 759 L473 759 L473 834 L521 834 L521 759 L813 759 L813 651 L939 651 L939 611 L813 611 L813 501 L521 501 L521 433 L877 433 L877 395 L521 395 L521 324 L941 324 Z" /><glyph glyph-name="uni2EA0" unicode="&#x2ea0;&#x6c11;" d="M527 338 Q511 409 505 496 L212 496 L212 338 L527 338 ZM212 731 L212 542 L815 542 L815 731 L212 731 ZM588 293 Q629 149 704 63 Q780 -25 864 -24 Q889 -23 900 11 Q910 43 915 127 Q930 112 958 104 Q951 4 930 -34 Q910 -71 862 -71 Q757 -72 669 30 Q583 129 539 293 L212 293 L212 9 L557 62 L560 15 L72 -62 L60 -13 L164 2 L164 776 L863 776 L863 496 L554 496 Q558 417 576 338 L939 338 L939 293 L588 293 Z" /><glyph glyph-name="uni6C17" unicode="&#x6c17;" d="M256 678 Q187 539 91 449 Q74 466 48 480 Q195 609 265 834 L315 822 Q300 773 276 721 L922 721 L922 678 L256 678 ZM248 538 L248 581 L825 581 L825 538 L248 538 ZM590 357 Q530 255 449 171 Q574 78 641 2 L604 -33 Q539 42 414 137 Q283 10 106 -76 Q87 -52 70 -39 Q245 38 378 164 Q273 240 173 296 L208 326 Q308 271 412 197 Q489 277 544 373 L590 357 ZM779 441 Q782 208 800 106 Q824 -26 883 -26 Q910 -26 913 120 Q928 105 950 95 Q945 -3 932 -36 Q918 -72 880 -73 Q794 -72 762 55 Q737 151 732 397 L136 397 L136 441 L779 441 Z" /><glyph glyph-name="uni6C5F" unicode="&#x6c5f;" d="M231 405 Q160 459 48 513 L75 549 Q186 497 257 445 L231 405 ZM80 -27 Q173 105 270 299 L305 267 Q206 74 121 -59 L80 -27 ZM127 820 Q248 755 308 705 L278 666 Q211 726 98 787 L127 820 ZM953 43 L953 -5 L335 -5 L335 43 L603 43 L603 685 L379 685 L379 733 L892 733 L892 685 L654 685 L654 43 L953 43 Z" /><glyph glyph-name="uni6D59" unicode="&#x6d59;" d="M67 -33 Q135 111 193 289 L231 264 Q185 116 112 -58 L67 -33 ZM72 553 Q185 507 241 457 L215 418 Q154 471 45 518 L72 553 ZM121 820 Q218 774 278 714 L248 675 Q193 735 92 788 L121 820 ZM582 357 L450 308 L450 -3 Q450 -47 420 -60 Q395 -69 298 -69 Q291 -42 281 -20 Q306 -21 387 -21 Q405 -20 405 -3 L405 291 L279 245 L259 291 Q329 314 405 340 L405 581 L278 581 L278 627 L405 627 L405 831 L450 831 L450 627 L574 627 L574 581 L450 581 L450 355 Q491 369 575 399 L582 357 ZM954 460 L847 460 L847 -72 L801 -72 L801 460 L663 460 L663 402 Q663 87 541 -71 Q519 -47 506 -40 Q617 103 617 402 L617 746 L662 731 Q815 784 890 833 L936 799 Q838 743 663 688 L663 506 L954 506 L954 460 Z" /><glyph glyph-name="uni6E90" unicode="&#x6e90;" d="M262 669 Q208 730 95 787 L124 821 Q240 762 291 708 L262 669 ZM217 411 Q155 469 45 520 L73 554 Q184 505 244 450 L217 411 ZM268 266 Q191 83 113 -58 L71 -29 Q149 101 230 293 L268 266 ZM553 205 Q497 75 418 -12 Q395 6 377 15 Q457 95 508 217 L553 205 ZM507 323 L855 323 L855 430 L507 430 L507 323 ZM507 471 L855 471 L855 576 L507 576 L507 471 ZM700 282 L700 -16 Q700 -56 671 -65 Q647 -74 539 -72 Q536 -62 524 -30 Q551 -31 636 -31 Q654 -30 654 -16 L654 282 L462 282 L462 617 L629 617 Q646 675 657 741 L390 741 L390 514 Q390 123 257 -65 Q238 -48 218 -41 Q343 139 343 514 L343 786 L945 786 L945 741 L694 741 L710 737 L675 617 L901 617 L901 282 L700 282 ZM831 223 Q926 112 961 22 L917 1 Q881 94 790 205 L831 223 Z" /><glyph glyph-name="uni7248" unicode="&#x7248;" d="M160 415 Q160 365 159 340 L369 340 L369 -73 L324 -73 L324 296 L158 296 Q145 58 70 -74 Q52 -56 34 -46 Q115 101 115 414 L115 816 L160 816 L160 550 L291 550 L291 837 L336 837 L336 550 L435 550 L435 505 L160 505 L160 415 ZM614 482 Q653 289 737 160 Q832 297 868 482 L614 482 ZM921 520 Q883 283 765 120 Q848 14 965 -34 Q946 -49 931 -74 Q817 -22 735 82 Q653 -16 540 -73 Q528 -49 510 -34 Q622 18 707 122 Q615 262 571 482 L535 482 Q533 113 429 -73 Q416 -60 390 -48 Q489 130 489 504 L489 787 L936 787 L936 742 L535 742 L535 527 L883 527 L892 529 L921 520 Z" /><glyph glyph-name="uni7279" unicode="&#x7279;" d="M279 309 L279 -72 L232 -72 L232 294 L57 237 L42 284 L232 340 L232 576 L126 576 Q105 480 78 417 Q64 428 37 439 Q88 545 114 778 L158 771 Q149 698 135 622 L232 622 L232 832 L279 832 L279 622 L393 622 L393 576 L279 576 L279 355 L408 395 L415 353 L279 309 ZM493 241 Q587 156 625 77 L586 52 Q547 133 455 220 L493 241 ZM819 472 L819 333 L948 333 L948 288 L819 288 L819 -6 Q819 -54 784 -65 Q754 -73 629 -73 Q625 -46 613 -24 Q724 -27 752 -24 Q772 -23 772 -6 L772 288 L393 288 L393 333 L772 333 L772 472 L379 472 L379 517 L645 517 L645 669 L437 669 L437 714 L645 714 L645 834 L692 834 L692 714 L904 714 L904 669 L692 669 L692 517 L951 517 L951 472 L819 472 Z" /><glyph glyph-name="uni2F64" unicode="&#x2f64;&#x7528;" d="M829 287 L829 480 L526 480 L526 287 L829 287 ZM478 287 L478 480 L209 480 L209 398 Q209 338 205 287 L478 287 ZM209 714 L209 526 L478 526 L478 714 L209 714 ZM829 714 L526 714 L526 526 L829 526 L829 714 ZM877 5 Q877 -47 836 -60 Q804 -70 653 -68 Q652 -50 636 -21 Q746 -24 803 -21 Q829 -21 829 5 L829 241 L526 241 L526 -65 L478 -65 L478 241 L201 241 Q175 34 76 -79 Q63 -58 39 -45 Q161 92 161 398 L161 760 L877 760 L877 5 Z" /><glyph glyph-name="uni82A5" unicode="&#x82a5;" d="M300 690 L66 690 L66 736 L300 736 L300 833 L348 833 L348 736 L646 736 L646 833 L694 833 L694 736 L937 736 L937 690 L694 690 L694 580 L646 580 L646 690 L348 690 L348 580 L300 580 L300 690 ZM293 374 L341 374 L341 288 Q341 174 305 100 Q253 -7 116 -76 Q106 -58 83 -40 Q213 24 261 122 Q293 187 293 289 L293 374 ZM646 374 L695 374 L695 -74 L646 -74 L646 374 ZM516 614 Q680 420 964 335 Q959 330 934 292 Q653 389 495 570 Q350 392 67 282 Q56 305 39 323 Q330 426 468 614 L516 614 Z" /><glyph glyph-name="uni8482" unicode="&#x8482;" d="M731 522 Q698 457 660 403 L914 403 L914 259 L867 259 L867 360 L522 360 L522 263 L817 263 L817 48 Q817 8 787 -2 Q764 -10 651 -10 Q648 11 635 33 Q729 31 752 33 Q769 33 769 48 L769 220 L522 220 L522 -72 L475 -72 L475 220 L231 220 L231 -19 L185 -19 L185 263 L475 263 L475 360 L134 360 L134 259 L88 259 L88 403 L323 403 Q305 461 267 517 L309 529 Q352 469 369 414 L336 403 L653 403 L619 415 Q653 469 684 536 L101 536 L101 578 L475 578 L475 663 L522 663 L522 578 L900 578 L900 536 L687 536 L731 522 ZM943 762 L943 718 L691 718 L691 631 L644 631 L644 718 L352 718 L352 631 L305 631 L305 718 L60 718 L60 762 L305 762 L305 833 L352 833 L352 762 L644 762 L644 833 L691 833 L691 762 L943 762 Z" /><glyph glyph-name="uni9053" unicode="&#x9053;" d="M810 517 L445 517 L445 417 L810 417 L810 517 ZM810 377 L445 377 L445 276 L810 276 L810 377 ZM810 236 L445 236 L445 133 L810 133 L810 236 ZM572 558 Q582 598 593 653 L311 653 L311 695 L500 695 Q478 752 425 814 L463 830 Q518 771 540 712 L507 695 L694 695 Q748 774 773 833 L822 819 Q775 737 744 695 L942 695 L942 653 L644 653 Q635 616 617 558 L857 558 L857 93 L399 93 L399 558 L572 558 ZM247 619 Q194 697 70 779 L104 808 Q223 736 284 650 L247 619 ZM253 114 Q326 1 523 -7 Q725 -15 956 -2 Q943 -25 940 -51 Q699 -58 524 -53 Q324 -46 231 71 Q166 13 73 -65 L45 -16 Q116 33 206 111 L206 391 L53 391 L53 437 L253 437 L253 114 Z" /><glyph glyph-name="uni9593" unicode="&#x9593;" d="M145 747 L145 644 L401 644 L401 747 L145 747 ZM401 497 L401 605 L145 605 L145 497 L401 497 ZM145 457 L145 -74 L98 -74 L98 787 L447 787 L447 457 L145 457 ZM361 331 L361 221 L634 221 L634 331 L361 331 ZM634 61 L634 179 L361 179 L361 61 L634 61 ZM680 20 L361 20 L361 -31 L315 -31 L315 373 L680 373 L680 20 ZM860 497 L860 605 L596 605 L596 497 L860 497 ZM596 747 L596 644 L860 644 L860 747 L596 747 ZM908 1 Q908 -52 870 -64 Q842 -72 709 -72 Q706 -55 691 -22 Q785 -25 836 -22 Q860 -22 860 1 L860 456 L550 456 L550 787 L908 787 L908 1 Z" /><glyph glyph-name="uni2FAE" unicode="&#x2fae;&#x975e;" d="M487 232 L380 211 Q325 10 127 -83 Q116 -68 92 -46 Q268 29 327 200 L61 148 L49 195 Q181 218 340 248 Q352 301 352 363 L352 405 L95 405 L95 450 L352 450 L352 624 L82 624 L82 670 L352 670 L352 828 L399 828 L399 363 Q399 307 390 257 L485 276 L487 232 ZM951 178 L636 178 L636 -72 L589 -72 L589 828 L636 828 L636 670 L934 670 L934 624 L636 624 L636 450 L915 450 L915 405 L636 405 L636 223 L951 223 L951 178 Z" /><glyph glyph-name="uni987B" unicode="&#x987b;" d="M582 622 Q595 653 618 739 L384 739 L384 785 L919 785 L919 739 L674 739 Q668 723 653 678 Q640 641 632 622 L874 622 L874 153 L826 153 L826 577 L479 577 L479 152 L431 152 L431 622 L582 622 ZM331 796 Q242 671 106 582 Q87 603 68 615 Q205 697 287 813 L331 796 ZM361 534 Q260 400 100 307 Q81 328 64 340 Q230 432 317 553 L361 534 ZM381 246 Q276 65 83 -36 Q66 -13 49 0 Q241 96 337 262 L381 246 ZM630 498 L678 498 L678 289 Q678 172 630 96 Q561 -12 382 -74 Q376 -61 353 -36 Q526 17 589 116 Q630 181 630 290 L630 498 ZM718 138 Q872 47 953 -29 L927 -70 Q839 14 692 103 L718 138 Z" /><glyph glyph-name="uni9AD4" unicode="&#x9ad4;" d="M867 698 L776 698 L776 617 L867 617 L867 698 ZM867 578 L776 578 L776 495 L867 495 L867 578 ZM529 495 L616 495 L616 578 L529 578 L529 495 ZM529 617 L616 617 L616 698 L529 698 L529 617 ZM652 578 L652 495 L740 495 L740 578 L652 578 ZM740 617 L740 698 L652 698 L652 617 L740 617 ZM909 457 L489 457 L489 736 L612 736 L612 833 L652 833 L652 736 L740 736 L740 833 L780 833 L780 736 L909 736 L909 457 ZM950 358 L453 358 L453 398 L950 398 L950 358 ZM554 157 L843 157 L843 263 L554 263 L554 157 ZM511 120 L511 300 L887 300 L887 120 L511 120 ZM345 146 L345 236 L170 236 L170 146 L345 146 ZM170 363 L170 276 L345 276 L345 363 L170 363 ZM389 -19 Q389 -56 365 -65 Q346 -72 258 -72 Q256 -60 242 -33 Q315 -35 330 -33 Q345 -33 345 -19 L345 107 L170 107 L170 -73 L127 -73 L127 402 L389 402 L389 -19 ZM168 522 L232 522 L232 676 L347 676 L347 755 L168 755 L168 522 ZM347 639 L269 639 L269 522 L347 522 L347 639 ZM405 386 L405 483 L111 483 L111 386 L71 386 L71 522 L128 522 L128 795 L389 795 L389 522 L446 522 L446 386 L405 386 ZM955 -10 L955 -50 L437 -50 L437 -10 L603 -10 Q595 45 565 101 L603 113 Q635 58 644 -2 L621 -10 L765 -10 L745 -2 Q774 58 791 114 L833 99 Q798 24 781 -10 L955 -10 Z" /><glyph glyph-name="uniFF0C" unicode="&#xff0c;" d="M119 -52 Q238 3 243 112 Q233 109 222 109 Q160 109 160 170 Q160 231 222 231 Q294 231 294 129 Q294 -27 136 -89 L119 -52 Z" /><glyph glyph-name="uniFF1A" unicode="&#xff1a;" d="M500 560 Q474 560 456 577 Q436 595 436 624 Q436 653 456 671 Q474 688 500 688 Q526 688 544 671 Q564 653 564 624 Q564 595 544 577 Q526 560 500 560 ZM500 64 Q474 64 456 81 Q436 98 436 127 Q436 156 456 174 Q474 191 500 191 Q526 191 544 174 Q564 156 564 127 Q564 98 544 81 Q526 64 500 64 Z" /><glyph glyph-name="uniFF89" unicode="&#xff89;" d="M394 688 L380 615 Q346 414 294 278 Q220 89 105 -12 L70 34 Q179 114 256 311 Q318 474 342 705 L394 688 Z" /><glyph glyph-name="uniFF9E" unicode="&#xff9e;" d="M58 803 Q81 763 141 644 L102 624 Q48 744 20 785 L58 803 ZM163 850 Q201 788 247 692 L209 673 Q155 789 126 832 L163 850 Z" /><glyph glyph-name="uniFFE3" unicode="&#xffe3;" d="M1000 880 L1000 842 L0 842 L0 880 L1000 880 Z" /></font>
</defs>
</svg>
