<?xml version="1.0" encoding="utf-8"?>
<!DOCTYPE svg PUBLIC "-//W3C//DTD SVG 1.1//EN" "http://www.w3.org/Graphics/SVG/1.1/DTD/svg11.dtd">
<svg version="1.1" id="图形" xmlns="http://www.w3.org/2000/svg" xmlns:xlink="http://www.w3.org/1999/xlink" x="0px" y="0px" width="1024px" height="1024px" viewBox="0 0 1024 1024" enable-background="new 0 0 1024 1024" xml:space="preserve">
  <path fill="#272636" d="M133.385916 95.189358c-21.87931 51.950186-32.972972 107.125833-32.972972 163.996075 0 46.49801 7.492648 92.183516 22.270213 135.786593 3.296069 9.723455-1.915629 20.277836-11.639085 23.572882-9.723455 3.298116-20.277836-1.915629-23.572882-11.639085-16.08228-47.455825-24.238031-97.15576-24.238031-147.72039 0-61.853743 12.075013-121.884978 35.888372-178.426739 22.997784-54.603619 55.929824-103.687524 97.882308-145.888671 3.632737-3.654226 8.407484-5.482875 13.184277-5.482875 4.738931 0 9.478885 1.801019 13.105482 5.405103 7.280824 7.237845 7.315616 19.008936 0.077771 26.28976C184.797843-0.116265 154.522306 45.003352 133.385916 95.189358zM947.145611 438.257877c-23.171746 54.783721-56.339146 103.979166-98.582249 146.222269-42.24208 42.243103-91.438549 75.410504-146.222269 98.582249C645.614114 707.056879 585.364915 719.222967 523.268648 719.222967c-74.379011 0-148.271952-18.168802-213.68987-52.54268-63.304791-33.263591-118.823246-81.640392-160.553673-139.90233-5.978155-8.346085-4.058432-19.959587 4.287653-25.937742 8.347109-5.978155 19.960611-4.059456 25.937742 4.288676 38.373982 53.574173 89.420589 98.057293 147.622152 128.638799 60.104913 31.582299 128.017652 48.275493 196.395996 48.275493 57.093323 0 112.468514-11.177574 164.589592-33.222659 50.350758-21.297049 95.574752-51.788503 134.415362-90.629113 38.839587-38.84061 69.332065-84.064604 90.62809-134.415362 22.045085-52.120055 33.223682-107.49627 33.223682-164.589592 0-112.049982-43.38716-217.636762-122.169457-297.308313-7.218402-7.30129-7.151887-19.071358 0.148379-26.28976 3.623527-3.582595 8.347109-5.370311 13.069667-5.370311 4.793166 0 9.583263 1.841951 13.220093 5.51869 41.694611 42.166355 74.41892 91.152023 97.262184 145.594983 23.653723 56.378032 35.647895 116.216885 35.647895 177.855734C983.305159 321.281699 971.139072 381.530898 947.145611 438.257877zM522.547217 305.477758c-11.545964 0-22.125927-4.123924-30.355355-10.974959L85.472674 506.726272c-9.102309 4.749164-20.331048 1.220804-25.080212-7.881504-4.750187-9.102309-1.220804-20.331048 7.881504-25.081235l135.554302-70.730924c-4.357238-9.824763-9.007141-22.167882-11.095709-29.271674-9.974166-33.93181-15.031345-69.230758-15.031345-104.917538 0-98.774631 38.3484-191.750185 107.980293-261.800611 3.63376-3.654226 8.407484-5.482875 13.184277-5.482875 4.737908 0 9.478885 1.801019 13.105482 5.405103 7.281847 7.237845 7.316639 19.007913 0.078795 26.28976-62.660108 63.035662-97.169063 146.7022-97.169063 235.588623 0 32.135908 4.549619 63.907519 13.520945 94.429673 1.518586 5.164626 5.130857 14.763239 8.460696 22.521946l238.346433-124.367519c-0.080841-1.133823-0.1361-2.273786-0.1361-3.428076 0-26.215058 21.253046-47.477314 47.476291-47.477314 26.215058 0 47.469128 21.261233 47.469128 47.477314C570.017368 284.222665 548.762275 305.477758 522.547217 305.477758z" transform="translate(0, 812) scale(1, -1)"/>
</svg>
