<?xml version="1.0" encoding="utf-8"?>
<!DOCTYPE svg PUBLIC "-//W3C//DTD SVG 1.1//EN" "http://www.w3.org/Graphics/SVG/1.1/DTD/svg11.dtd">
<svg version="1.1" id="图形" xmlns="http://www.w3.org/2000/svg" xmlns:xlink="http://www.w3.org/1999/xlink" x="0px" y="0px" width="1024px" height="1024px" viewBox="0 0 1024 1024" enable-background="new 0 0 1024 1024" xml:space="preserve">
  <path fill="#272636" d="M79.458703-110.073586 42.091654-110.073586c-10.326183 0-18.696828 8.370645-18.696828 18.696828l0 36.576033c-1.016143 13.925151-0.810459 58.805314 36.173874 105.562221 16.129352 20.392446 36.874839 37.795814 61.658292 51.726082 28.083615 15.785521 61.461817 27.116591 99.205443 33.679054 0.225127 0.038886 0.451278 0.073678 0.678452 0.105401 41.397852 5.641487 75.742055 15.869433 90.411149 22.227234-0.128937 3.745301-0.412392 8.740058-0.977257 15.241123-4.184299 47.315632-28.473495 74.874291-51.963489 101.525278-9.146311 10.375302-17.228383 19.701714-23.566742 28.851095-30.042223 43.375903-33.136701 91.24412-33.391505 96.559173-0.013303 0.286526-0.021489 0.574075-0.021489 0.860601-0.028653 17.020652 4.438079 31.578206 13.612019 44.226271-5.266957 36.304857-5.28333 84.581374 0.167822 118.910227 3.585665 53.380768 43.308365 92.469018 52.262294 100.638071-0.962931 7.142677-0.768503 14.246469 0.586354 21.228487 3.437286 18.053168 17.446347 48.862871 72.500221 51.626821 3.037173 0.161682 5.679349 0.316202 8.079002 0.457418l2.686179 0.156566c10.304693 0.589424 19.146059-7.28287 19.7406-17.591657 0.593518-10.308787-7.28287-19.146059-17.591657-19.7406l-2.6432-0.153496c-2.461051-0.144286-5.172813-0.302899-8.340969-0.471744-33.968649-1.705851-36.685527-15.972786-37.70781-21.344121-0.959861-4.947685-0.606821-9.718339 1.101077-15.077394 2.131547-6.688329 0.336668-14.005992-4.64581-18.949584-2.753717-2.732228-5.810333-5.38873-7.906064-7.17747-2.348488-2.069125-38.372959-34.490535-40.851407-76.773548-0.037862-0.64059-0.107447-1.278109-0.210801-1.911536-5.369288-32.963763-4.948709-82.773192 0.977257-115.861798 1.036609-5.78782-0.710175-11.727089-4.716418-16.032138-4.480035-4.814656-9.611915-12.071943-9.700943-25.64303 0.277316-4.599761 3.252067-42.707684 26.75741-76.645634 5.186116-7.487531 12.520151-15.935947 20.87033-25.40767 24.911366-28.263717 55.902194-63.425541 61.170175-122.996289 1.480724-17.054421 1.345648-26.191522 0.973164-30.856775-0.404206-5.060249-2.848884-9.738805-6.77224-12.95915-17.196661-14.121626-72.254627-27.992541-115.487268-33.918507-61.418838-10.736529-108.996436-35.527145-137.612171-71.704089-23.24133-29.384237-29.791513-60.638055-28.172643-80.088036 0.042979-0.51677 0.064468-1.034563 0.064468-1.552356l0-18.605753 18.671245 0c10.326183 0 18.696828-8.370645 18.696828-18.696828S89.784886-110.073586 79.458703-110.073586zM751.099586-164.379423c-3.520173 0-7.078209 0.991584-10.241248 3.066849-33.1981 21.787212-87.573521 23.945365-91.089601 24.062022l-20.834514 0-33.276894-0.25378c-0.047072 0-0.095167 0-0.14224 0L158.417009-137.504332c-10.326183 0-18.696828 8.370645-18.696828 18.696828l0 21.182438c-0.303922 6.118348-0.801249 38.71986 19.965727 74.446549 13.027711 22.413476 31.746028 41.654702 55.635111 57.18849 28.897144 18.790972 65.478294 32.129768 108.727307 39.647999 0.233314 0.039909 0.466628 0.075725 0.700965 0.107447 0.319272 0.042979 32.659841 4.469801 65.869197 13.129019 57.783031 15.068184 63.96994 28.620851 64.015989 28.753881 0.349971 1.373277 0.850367 2.688225 1.488911 3.925403 0.469698 2.659573 1.565658 12.262278-0.649799 37.356816-5.725398 64.899102-39.5866 103.31197-66.794265 134.178979-8.635681 9.79611-16.792455 19.049868-23.092951 28.151154-27.196409 39.284725-29.721929 83.969437-29.816073 85.851297-0.01535 0.311085-0.023536 0.623193-0.023536 0.934279 0 18.188244 9.413394 26.867928 16.97665 33.842783l0.408299 0.3776c0.065492 0.060375 0.12382 0.115634 0.173962 0.165776-0.032746 1.351787-0.569982 4.121877-0.940418 6.03239-0.160659 0.826831-0.321318 1.657756-0.474814 2.492774-6.789637 36.864606-7.256264 93.800339-1.121544 130.379443 2.329045 48.357358 43.966351 85.326341 45.754067 86.889953 0.070608 0.061398 0.141216 0.122797 0.212848 0.183172 5.872754 4.984524 11.824303 10.42135 15.572674 16.401552 0.309038 0.493234 0.551562 0.903579 0.73985 1.242294-0.257873 0.63445-0.575098 1.36509-0.839111 1.974981-2.208295 5.091972-5.904477 13.612019-3.866051 24.231891 1.239224 6.460132 5.943362 17.997909 23.517623 22.686698 6.958482 1.856277 14.34573 2.233877 19.7406 2.51017l1.066285 0.055259c21.166065 1.11438 43.74327 2.056845 66.602907 0.302899 165.311023-12.673647 222.38388-74.591859 224.732367-77.221756 0.13917-0.155543 0.275269-0.313132 0.407276-0.472767 13.300934-15.931854 23.151279-35.770691 29.275767-58.96495 1.907443-7.215332 3.13541-13.288654 3.853771-19.056008 5.780657-33.594119 4.813632-68.038606 3.578502-91.067089-0.689708-12.921287-2.131547-26.499537-4.53734-42.724057-0.176009-1.182942-0.51677-4.00522 0.103354-4.746094 0.695848-0.831948 1.561565-1.7519 2.480494-2.725064 3.713578-3.941775 8.801457-9.339716 11.526521-18.065448 1.366114-4.383844 2.000564-9.060353 2.000564-14.727423 0-0.311085-0.008186-0.623193-0.022513-0.934279-0.094144-1.882883-2.620687-46.567595-29.817096-85.85232-6.300496-9.100262-14.456247-18.351973-23.089881-28.14706-27.209712-30.865985-61.072961-69.2809-66.799382-134.181025-2.221598-25.173332-1.111311-34.757618-0.642636-37.381375 0.64366-1.249457 1.14815-2.573615 1.499144-3.950985 0.031722-0.082888 6.242168-13.68365 64.303538-28.78151 33.20424-8.634658 65.24805-13.008268 65.567321-13.051247 0.303922-0.040932 0.606821-0.089028 0.908696-0.145309 43.63787-8.093329 80.43903-21.771863 109.385293-40.659025 23.969924-15.639189 42.653449-34.844599 55.531757-57.08309 20.374026-35.180244 19.61371-67.072605 19.201318-73.637114l0-21.048385c0-10.326183-8.370645-18.696828-18.696828-18.696828L851.112418-137.504332c-1.051959 0-2.082428 0.086981-3.087315 0.25378l-27.339672 0c-10.326183 0-18.696828 8.370645-18.696828 18.696828s8.370645 18.696828 18.696828 18.696828l49.15963 0c1.051959 0 2.082428-0.086981 3.087315-0.25378l78.389348 0 0 3.012613c0 0.691755 0.008186 1.100054 0.081864 1.76725 0.102331 1.530866 1.449002 26.552749-15.34857 54.328349-10.138918 16.766872-24.914436 31.420617-43.913139 43.557028-24.499997 15.649422-56.102762 27.16264-93.938486 34.220383-4.496407 0.623193-36.927027 5.276167-70.950935 14.234189-52.426023 13.802354-80.761372 30.344099-88.581478 51.828412-3.877307 7.53051-6.048763 22.343891-2.958378 57.379848 6.80601 77.130681 46.796816 122.495892 75.997881 155.621337 8.232498 9.338692 15.34243 17.404392 20.397562 24.704658 19.693528 28.446889 22.877033 62.08808 23.187095 66.051345-0.031722 2.020006-0.234337 2.829442-0.300852 3.040243-0.152473 0.490164-1.962701 2.409886-3.044336 3.558036-1.192152 1.26583-2.543939 2.700505-3.952009 4.383844-7.706519 9.217942-10.456143 20.411889-8.404414 34.222429 2.229784 15.034415 3.560082 27.502377 4.185322 39.231513 1.144056 21.323655 2.059915 53.137221-3.160993 83.135442-0.057305 0.327458-0.106424 0.657986-0.145309 0.98749-0.49528 4.148483-1.428535 8.740058-2.938935 14.450107-4.662183 17.653055-11.887748 32.497135-21.48022 44.13315-1.661849 1.689479-14.524808 14.213723-43.126216 27.835975-28.491914 13.570063-78.774111 30.997991-156.51673 36.957727-20.633946 1.584078-41.833781 0.689708-61.779042-0.361227l-1.122567-0.057305c-1.355881-0.069585-3.488451-0.178055-5.66707-0.36225 2.232854-5.616928 4.513804-13.617136 1.661849-23.107277-1.50119-4.995781-3.865028-9.066493-5.51255-11.695367-6.423293-10.245342-15.165398-18.339694-22.898523-24.912389-1.479701-1.336438-31.956829-29.290093-33.003672-61.274552-0.028653-0.86981-0.11768-1.736551-0.267083-2.594081-5.616928-32.275077-5.238304-85.405135 0.845251-118.437459 0.132006-0.717338 0.271176-1.430582 0.408299-2.14178 1.785669-9.201569 5.109368-26.328645-10.586103-40.805358l-0.415462-0.382717c-1.874697-1.728364-4.187369-3.860934-4.830005-4.78191-0.028653-0.162706-0.075725-0.50142-0.094144-1.072425 0.325411-4.180206 3.491521-37.557384 23.184025-66.002226 5.054109-7.30129 12.165064-15.368012 20.398586-24.708751 29.199019-33.124422 69.187779-78.490655 75.991742-155.617244 3.093455-35.035958 0.923022-49.849338-2.954285-57.379848-7.820106-21.485337-36.154431-38.026058-88.581478-51.828412-34.319643-9.035794-67.01837-13.690814-71.062476-14.249539-38.090527-6.655584-69.855998-18.126846-94.417393-34.097586-18.934235-12.311397-33.634028-27.328415-43.692105-44.6315-16.477276-28.346605-14.981203-53.379745-14.96176-53.624315 0.040932-0.500397 0.060375-1.001817 0.060375-1.50426l0-3.012613L595.455737-100.1117l33.276894 0.25378c0.047072 0 0.095167 0 0.14224 0l21.160949 0c0.141216 0 0.280386-0.001023 0.421602-0.004093 2.745531-0.063445 67.726497-1.843998 110.918205-30.187533 8.633634-5.665023 11.038404-17.256012 5.373381-25.889647C763.157203-161.408765 757.187235-164.379423 751.099586-164.379423zM667.433048 125.541643c0.50449-0.407276 0.986467-0.838088 1.442862-1.292436C668.445098 124.678996 667.965168 125.112877 667.433048 125.541643z" transform="translate(0, 812) scale(1, -1)"/>
</svg>
