<?xml version="1.0" encoding="utf-8"?>
<!DOCTYPE svg PUBLIC "-//W3C//DTD SVG 1.1//EN" "http://www.w3.org/Graphics/SVG/1.1/DTD/svg11.dtd">
<svg version="1.1" id="图形" xmlns="http://www.w3.org/2000/svg" xmlns:xlink="http://www.w3.org/1999/xlink" x="0px" y="0px" width="1024px" height="1024px" viewBox="0 0 1024 1024" enable-background="new 0 0 1024 1024" xml:space="preserve">
  <path fill="#272636" d="M742.595912-192.897943c-3.51915 0-7.078209 0.991584-10.241248 3.066849-34.372855 22.556739-90.629113 24.765033-94.152357 24.879644l-21.048385-0.021489c-0.010233 0-0.019443 0-0.028653 0-2.294252 0-20.88568 0.436952-35.009352 14.537088-6.686283 6.675026-14.655791 18.862603-14.655791 39.009456L567.460126 0.003462c-0.195451 13.483082-3.994987 23.407106-11.613502 30.334889-13.489222 12.266371-37.208437 13.252839-45.213761 12.594853l-0.781806-0.051165c-17.934464-0.796132-30.728862-5.560646-38.027082-14.158465-8.908904-10.496052-7.758708-24.717961-7.628748-26.049283l0.234337-1.414209-0.063445-1.124614 0-111.560842c0-20.146852-7.970532-32.334429-14.656815-39.009456-14.124695-14.101159-32.719192-14.537088-34.93465-14.537088-0.00921 0-0.01842 0-0.026606 0L192.763259-164.971917c-26.51591 0-48.087205 21.571295-48.087205 48.087205l0.021489 401.879973c0.042979 4.591575-0.851391 7.841595-2.65548 9.660011-2.680039 2.700505-7.842619 3.363607-9.679453 3.3984l-0.51063-0.034792-0.030699 0.031722c-27.866674 0-50.539047 22.669302-50.539047 50.534953 0 12.220323 4.421706 24.016996 12.45159 33.214473l0.854461 0.914836L481.487056 770.198965c23.887037 24.493857 52.385091 15.010879 65.730027 2.64013l0.512676-0.493234 389.945153-390.07102 0.415462-0.476861c8.026814-9.195429 12.446473-20.99108 12.446473-33.214473 0-26.937512-18.760273-46.918589-46.899146-50.255591l-0.261966-0.076748-1.851161-0.161682c-6.570649-0.572028-14.402011-3.338025-14.402011-13.270235l0-395.084197 0.020466-0.115634 0-1.587148c0-12.859889-3.52222-24.940019-9.91993-34.013675-8.634658-12.247952-22.190395-18.992563-38.166251-18.992563l-36.641525 0.021489c-10.326183 0-18.696828 8.370645-18.696828 18.696828s8.370645 18.696828 18.696828 18.696828l36.707017-0.021489c5.332449 0.017396 6.767124 2.051729 7.538697 3.146667 1.786693 2.533706 2.908236 6.703679 3.068895 11.316743L849.729931 284.821299c0 26.616194 19.037589 47.051619 46.547129 50.315966l0.228197 0.066515 1.825578 0.163729c9.828856 0.881067 14.813381 5.328355 14.813381 13.217023 0 3.783163-1.512447 6.523577-2.905166 8.244778L521.795087 745.398116c-6.845918 5.585205-11.555174 0.734734-13.58132-1.351787l-0.183172-0.186242L121.587196 356.83238c-1.396813-1.723248-2.912329-4.464685-2.912329-8.247848 0-7.201006 5.823636-13.068643 13.010315-13.141298 3.89982 0.060375 22.5199-0.436952 36.364209-13.920034 6.490831-6.320962 14.189164-17.831111 14.040784-36.776601l0-402.305669c0.347924-5.584182 5.001921-10.021238 10.673084-10.021238l221.769896 0c1.172709 0.066515 4.492314 0.589424 7.14677 2.313695 1.447978 0.940418 5.293563 3.437286 5.293563 13.840216L426.973488-0.927747c-0.696872 6.947226-1.750877 32.04074 15.857153 53.271274 14.217816 17.140379 36.077683 26.51898 64.97585 27.876907 6.390547 0.514723 45.712111 2.561335 72.968895-22.00927 15.660678-14.117532 23.76117-33.5757 24.076348-57.83215l0.001023-0.243547 0-111.560842c0-5.886057 1.239224-10.107195 3.683902-12.547781 3.178389-3.174296 8.432043-3.606131 8.481162-3.606131l3.706415 0.021489 18.171871-0.004093c2.821255-0.063445 69.613474-1.89414 113.975844-31.006178 8.632611-5.665023 11.038404-17.256012 5.373381-25.889647C754.654552-189.928309 748.683561-192.897943 742.595912-192.897943z" transform="translate(0, 812) scale(1, -1)"/>
</svg>
