<?xml version="1.0" encoding="utf-8"?>
<!DOCTYPE svg PUBLIC "-//W3C//DTD SVG 1.1//EN" "http://www.w3.org/Graphics/SVG/1.1/DTD/svg11.dtd">
<svg version="1.1" id="图形" xmlns="http://www.w3.org/2000/svg" xmlns:xlink="http://www.w3.org/1999/xlink" x="0px" y="0px" width="1024px" height="1024px" viewBox="0 0 1024 1024" enable-background="new 0 0 1024 1024" xml:space="preserve">
  <path fill="#272636" d="M912.072815-134.738335c-4.78498 0-9.56996 1.824555-13.220093 5.475711L650.662083 118.923922c-0.285502 0.285502-0.561795 0.579191-0.827855 0.883113l-6.979972 7.948019c-6.671956 7.594979-6.096858 19.11843 1.297552 26.012444 32.130791 29.958312 57.424874 65.413825 75.181283 105.379049 18.374486 41.35692 27.691689 85.472674 27.691689 131.122363 0 86.355787-33.628912 167.542854-94.691639 228.604558-61.062727 61.062727-142.249795 94.691639-228.604558 94.691639s-167.541831-33.628912-228.604558-94.691639c-61.062727-61.062727-94.691639-142.249795-94.691639-228.604558s33.628912-167.542854 94.691639-228.604558c61.062727-61.062727 142.249795-94.691639 228.604558-94.691639 26.15059 0 52.16508 3.130294 77.326133 9.301853 5.090948 1.353834 73.4038 19.189038 120.842229 14.809287 10.282181-0.948605 17.847483-10.05296 16.899902-20.335141s-10.047844-17.853623-20.335141-16.899902c-41.659819 3.845585-107.272165-13.571087-107.930151-13.747095-0.125867-0.033769-0.251733-0.065492-0.3776-0.097214-28.132734-6.91755-57.20998-10.425444-86.425372-10.425444-48.684816 0-95.922676 9.538237-140.402727 28.352745-42.953278 18.166755-81.523735 44.172035-114.644063 77.290317-33.119305 33.119305-59.123562 71.691809-77.29134 114.644063-18.813484 44.479027-28.352745 91.716888-28.352745 140.401704s9.53926 95.922676 28.352745 140.402727c18.167778 42.953278 44.172035 81.524758 77.29134 114.644063 33.119305 33.119305 71.690786 59.123562 114.644063 77.29134 44.480051 18.813484 91.717911 28.352745 140.402727 28.352745s95.922676-9.53926 140.401704-28.352745c42.953278-18.167778 81.524758-44.173059 114.644063-77.29134 33.118282-33.119305 59.123562-71.690786 77.29134-114.644063 18.813484-44.480051 28.351722-91.717911 28.351722-140.402727 0-50.912553-10.399861-100.136651-30.91101-146.305157-17.285688-38.906102-40.96704-73.973782-70.526263-104.47547l242.313791-242.310721c7.302313-7.30129 7.302313-19.138896 0.001023-26.440186C921.642774-132.912757 916.857794-134.738335 912.072815-134.738335zM165.576059 390.112344c-0.696872 0-1.400906 0.038886-2.110057 0.118704-10.260691 1.152243-17.645892 10.404977-16.493649 20.666692 4.838192 43.080168 17.974373 83.934644 39.046295 121.429607 5.058203 9.002025 16.457834 12.19781 25.458835 7.139607 9.002025-5.058203 12.19781-16.45681 7.139607-25.458835-18.605753-33.108049-30.207999-69.202105-34.484396-107.282399C183.060269 397.172133 174.967964 390.112344 165.576059 390.112344z" transform="translate(0, 812) scale(1, -1)"/>
</svg>
